<svg width="75" height="75" viewBox="0 0 75 75" fill="none" xmlns="http://www.w3.org/2000/svg">
<g clip-path="url(#clip0_0_54353)">
<path d="M73.75 10V50C73.75 52.0711 72.0711 53.75 70 53.75H60V52.5C60 51.8096 59.4404 51.25 58.75 51.25H16.25C15.5596 51.25 15 51.8096 15 52.5V53.75H5C2.92893 53.75 1.25 52.0711 1.25 50V10C1.25 7.92893 2.92893 6.25 5 6.25H70C72.0711 6.25 73.75 7.92893 73.75 10Z" fill="#F5F5F5"/>
<path d="M11.25 52.5V53.75H15V52.5C15 51.8096 15.5596 51.25 16.25 51.25H12.5C11.8096 51.25 11.25 51.8096 11.25 52.5Z" fill="#CFD8DC"/>
<path d="M70 6.25H66.25C68.3211 6.25 70 7.92893 70 10V50C70 52.0711 68.3211 53.75 66.25 53.75H70C72.0711 53.75 73.75 52.0711 73.75 50V10C73.75 7.92893 72.0711 6.25 70 6.25Z" fill="#CFD8DC"/>
<path d="M36.25 1.25H38.75C40.1307 1.25 41.25 2.36929 41.25 3.75V6.25H33.75V3.75C33.75 2.36929 34.8693 1.25 36.25 1.25Z" fill="#FF9801"/>
<path d="M38.75 1.25H36.25C36.0387 1.25259 35.8287 1.28242 35.625 1.33875C36.7254 1.62287 37.4957 2.61349 37.5 3.75V6.25H41.25V3.75C41.25 2.36929 40.1307 1.25 38.75 1.25Z" fill="#F57C00"/>
<path d="M58.75 51.25H16.25C15.5596 51.25 15 51.8096 15 52.5V56.25C15 56.9404 15.5596 57.5 16.25 57.5H58.75C59.4404 57.5 60 56.9404 60 56.25V52.5C60 51.8096 59.4404 51.25 58.75 51.25Z" fill="#FF9801"/>
<path d="M58.75 51.25H55C55.6904 51.25 56.25 51.8096 56.25 52.5V56.25C56.25 56.9404 55.6904 57.5 55 57.5H58.75C59.4404 57.5 60 56.9404 60 56.25V52.5C60 51.8096 59.4404 51.25 58.75 51.25Z" fill="#F57C00"/>
<path d="M41.25 57.5V70C41.25 72.0711 39.5711 73.75 37.5 73.75C35.4289 73.75 33.75 72.0711 33.75 70V57.5H41.25Z" fill="#02A9F4"/>
<path d="M37.5 57.5V70C37.4978 71.3346 36.7828 72.5663 35.625 73.23C36.1924 73.5675 36.8398 73.747 37.5 73.75C39.5711 73.75 41.25 72.0711 41.25 70V57.5H37.5Z" fill="#0377BC"/>
<path d="M30.2998 57.5L21.9998 71.875C20.9642 73.6699 18.6697 74.2855 16.8748 73.25C15.0799 72.2145 14.4642 69.9199 15.4998 68.125L21.6373 57.5H30.2998Z" fill="#02A9F4"/>
<path d="M26.55 57.5L18.25 71.875C17.9142 72.4471 17.4318 72.9191 16.8525 73.2425L16.8625 73.25C18.6614 74.2849 20.9586 73.6701 22 71.875L30.3 57.5H26.55Z" fill="#0377BC"/>
<path d="M58.1377 73.25C56.3388 74.2849 54.0417 73.6701 53.0002 71.875L44.7002 57.5H53.3627L59.5002 68.125C60.5391 69.9165 59.9291 72.2109 58.1377 73.25Z" fill="#02A9F4"/>
<path d="M59.4998 68.125L53.3623 57.5H49.6123L55.7498 68.125C56.7853 69.9122 56.1806 72.2003 54.3973 73.2425C55.8647 74.0958 57.7228 73.8527 58.9213 72.6507C60.1197 71.4487 60.3574 69.5898 59.4998 68.125Z" fill="#0377BC"/>
<path d="M70 5H42.5V3.75C42.5 1.67893 40.8211 0 38.75 0H36.25C34.1789 0 32.5 1.67893 32.5 3.75V5H5C2.23858 5 0 7.23858 0 10V50C0 52.7614 2.23858 55 5 55H13.75V56.25C13.75 57.6307 14.8693 58.75 16.25 58.75H19.4725L14.4187 67.5C13.5165 69.0425 13.5092 70.95 14.3996 72.4994C15.29 74.0488 16.9417 75.0029 18.7288 75C20.5219 75.0025 22.1808 74.05 23.0825 72.5L31.0225 58.75H32.5V70C32.5 72.7614 34.7386 75 37.5 75C40.2614 75 42.5 72.7614 42.5 70V58.75H43.9775L51.9188 72.5C53.3139 74.883 56.3674 75.6986 58.765 74.3288C61.1511 72.9438 61.9644 69.8879 60.5825 67.5L55.5275 58.75H58.75C60.1307 58.75 61.25 57.6307 61.25 56.25V55H70C72.7614 55 75 52.7614 75 50V10C75 7.23858 72.7614 5 70 5ZM35 3.75C35 3.05964 35.5596 2.5 36.25 2.5H38.75C39.4404 2.5 40 3.05964 40 3.75V5H35V3.75ZM20.9188 71.25C20.2207 72.4439 18.692 72.8541 17.49 72.17C16.9157 71.8372 16.4974 71.2897 16.3271 70.6482C16.1569 70.0066 16.2488 69.3237 16.5825 68.75L22.3587 58.75H28.135L20.9188 71.25ZM40 70C40 71.3807 38.8807 72.5 37.5 72.5C36.1193 72.5 35 71.3807 35 70V58.75H40V70ZM58.4188 68.75C59.1086 69.9416 58.7051 71.4667 57.5163 72.1612C56.3153 72.8495 54.7841 72.4432 54.0825 71.25L46.865 58.75H52.6413L58.4188 68.75ZM16.25 56.25V52.5H58.75V56.25H16.25ZM72.5 50C72.5 51.3807 71.3807 52.5 70 52.5H61.25C61.25 51.1193 60.1307 50 58.75 50H16.25C14.8693 50 13.75 51.1193 13.75 52.5H5C3.61929 52.5 2.5 51.3807 2.5 50V10C2.5 8.61929 3.61929 7.5 5 7.5H70C71.3807 7.5 72.5 8.61929 72.5 10V50Z" fill="black"/>
<path d="M14.5897 17.825C14.3443 17.602 14.0203 17.4856 13.689 17.5016C13.3577 17.5175 13.0464 17.6644 12.8235 17.91C10.1648 20.891 8.71235 24.7558 8.74973 28.75C8.71235 32.7442 10.1648 36.609 12.8235 39.59C13.2874 40.1016 14.0782 40.1402 14.5897 39.6763C15.1013 39.2124 15.1399 38.4216 14.676 37.91C12.434 35.3893 11.2124 32.1233 11.2497 28.75C11.2124 25.3768 12.434 22.1107 14.676 19.59C15.1393 19.0787 15.1007 18.2887 14.5897 17.825Z" fill="black"/>
<path d="M47.9104 17.825C47.3995 18.2887 47.3609 19.0787 47.8242 19.59C50.0661 22.1107 51.2877 25.3768 51.2504 28.75C51.2877 32.1233 50.0661 35.3893 47.8242 37.91C47.3603 38.4216 47.3989 39.2124 47.9104 39.6763C48.422 40.1402 49.2128 40.1016 49.6767 39.59C52.3354 36.609 53.7878 32.7442 53.7504 28.75C53.7878 24.7558 52.3354 20.891 49.6767 17.91C49.4538 17.6644 49.1424 17.5175 48.8112 17.5016C48.4799 17.4856 48.1559 17.602 47.9104 17.825Z" fill="black"/>
<path d="M24.6335 24.1162C24.1454 23.6282 23.3541 23.6282 22.866 24.1162L19.9998 26.9825L17.1335 24.1162C16.643 23.6425 15.8634 23.6493 15.3812 24.1315C14.8991 24.6136 14.8923 25.3933 15.366 25.8837L18.2323 28.75L15.366 31.6162C15.0411 31.9301 14.9108 32.3948 15.0251 32.8319C15.1395 33.2689 15.4808 33.6102 15.9179 33.7246C16.3549 33.839 16.8197 33.7087 17.1335 33.3837L19.9998 30.5175L22.866 33.3837C23.3565 33.8574 24.1361 33.8507 24.6183 33.3685C25.1005 32.8863 25.1072 32.1067 24.6335 31.6162L21.7673 28.75L24.6335 25.8837C25.1215 25.3956 25.1215 24.6044 24.6335 24.1162Z" fill="black"/>
<path d="M35 27.5H33.75V26.25C33.75 25.5596 33.1904 25 32.5 25C31.8096 25 31.25 25.5596 31.25 26.25V27.5H30C29.3096 27.5 28.75 28.0596 28.75 28.75C28.75 29.4404 29.3096 30 30 30H31.25V31.25C31.25 31.9404 31.8096 32.5 32.5 32.5C33.1904 32.5 33.75 31.9404 33.75 31.25V30H35C35.6904 30 36.25 29.4404 36.25 28.75C36.25 28.0596 35.6904 27.5 35 27.5Z" fill="black"/>
<path d="M46.875 23.915C46.2758 23.5728 45.5126 23.781 45.17 24.38L43.95 26.5138L42.25 24.25C41.9821 23.8928 41.5439 23.7056 41.1005 23.759C40.6571 23.8124 40.2759 24.0983 40.1005 24.509C39.9251 24.9197 39.9821 25.3928 40.25 25.75L42.5938 28.875L40.165 33.125C39.8228 33.7243 40.0309 34.4875 40.63 34.83C40.818 34.9404 41.032 34.9991 41.25 35C41.6979 35.0014 42.1123 34.7629 42.3363 34.375L45.1613 29.4313L45.1725 29.4125L47.3363 25.625C47.5025 25.3372 47.5473 24.9951 47.4607 24.6742C47.3742 24.3534 47.1634 24.0802 46.875 23.915Z" fill="black"/>
<path d="M65 23.75H58.75C58.0596 23.75 57.5 24.3096 57.5 25C57.5 25.6904 58.0596 26.25 58.75 26.25H65C65.6904 26.25 66.25 25.6904 66.25 25C66.25 24.3096 65.6904 23.75 65 23.75Z" fill="black"/>
<path d="M65 28.75H58.75C58.0596 28.75 57.5 29.3096 57.5 30C57.5 30.6904 58.0596 31.25 58.75 31.25H65C65.6904 31.25 66.25 30.6904 66.25 30C66.25 29.3096 65.6904 28.75 65 28.75Z" fill="black"/>
</g>
<defs>
<clipPath id="clip0_0_54353">
<rect width="75" height="75" fill="white"/>
</clipPath>
</defs>
</svg>
