<svg width="59" height="75" viewBox="0 0 59 75" fill="none" xmlns="http://www.w3.org/2000/svg">
<path d="M54.9608 1.09863H12.9365C6.39858 1.09863 1.09863 6.39858 1.09863 12.9365V62.0635C1.09863 55.5256 6.39858 50.2257 12.9365 50.2257H56.1447C56.7984 50.2257 57.3284 50.7557 57.3284 51.4094V3.46626C57.3284 2.15859 56.2685 1.09863 54.9608 1.09863Z" fill="#82AEE3"/>
<path d="M54.9607 1.09863H50.5215C51.829 1.09863 52.8891 2.15859 52.8891 3.46626V50.2257H56.1446C56.7983 50.2257 57.3283 50.7557 57.3283 51.4094V3.46626C57.3283 2.15859 56.2684 1.09863 54.9607 1.09863Z" fill="#528FD8"/>
<path d="M12.9365 50.2257H56.1447C56.7984 50.2257 57.3284 50.7557 57.3284 51.4094V53.7771C57.3284 54.4308 56.7984 54.9608 56.1447 54.9608H13.0557C9.16641 54.9608 5.90889 58.0377 5.83506 61.9263C5.75962 65.9053 8.97437 69.1663 12.9365 69.1663H56.1447C56.7984 69.1663 57.3284 69.6963 57.3284 70.35V72.7177C57.3284 73.3714 56.7984 73.9014 56.1447 73.9014H12.9365C6.39858 73.9014 1.09863 68.6014 1.09863 62.0636C1.09863 55.5257 6.39858 50.2257 12.9365 50.2257Z" fill="#528FD8"/>
<path d="M56.1451 69.1663H24.1393C22.2993 70.9213 20.3848 72.5029 18.4277 73.9014H56.1451C56.7989 73.9014 57.3289 73.3714 57.3289 72.7176V70.35C57.3289 69.6962 56.7989 69.1663 56.1451 69.1663Z" fill="#0573CE"/>
<path d="M56.1448 50.2257H36.6571C36.1226 51.7959 35.4671 53.3795 34.6934 54.9608H56.1448C56.7986 54.9608 57.3286 54.4308 57.3286 53.7771V51.4094C57.3286 50.7557 56.7986 50.2257 56.1448 50.2257Z" fill="#0573CE"/>
<path d="M55.553 69.1663V54.9608H12.9367C9.02031 54.9608 5.83398 58.1471 5.83398 62.0636C5.83398 65.98 9.02031 69.1663 12.9367 69.1663H55.553Z" fill="#DFF6FD"/>
<path d="M34.693 54.9608C32.4465 59.5518 29.2085 64.1205 25.0628 68.2662C24.7573 68.5717 24.4488 68.8706 24.1387 69.1662H55.5525V54.9607H34.693V54.9608Z" fill="#C8EFFE"/>
<path d="M32.1731 45.4906C43.1241 45.4906 52.0016 36.6131 52.0016 25.6622C52.0016 14.7112 43.1241 5.83374 32.1731 5.83374C21.2222 5.83374 12.3447 14.7112 12.3447 25.6622C12.3447 36.6131 21.2222 45.4906 32.1731 45.4906Z" fill="#FE7AB6"/>
<path d="M43.6261 9.4743C45.9187 12.709 47.2665 16.6605 47.2665 20.927C47.2665 31.8779 38.389 40.7555 27.4381 40.7555C23.1716 40.7555 19.22 39.4077 15.9854 37.115C19.5773 42.1828 25.4888 45.4907 32.1733 45.4907C43.1242 45.4907 52.0018 36.6132 52.0018 25.6623C52.0016 18.9778 48.6938 13.0661 43.6261 9.4743Z" fill="#FE5CA7"/>
<path d="M16.7832 60.4987H38.3873C38.9942 60.4987 39.4859 60.0069 39.4859 59.4C39.4859 58.7931 38.9942 58.3014 38.3873 58.3014H16.7832C16.1763 58.3014 15.6846 58.7931 15.6846 59.4C15.6846 60.0069 16.1765 60.4987 16.7832 60.4987Z" fill="black"/>
<path d="M43.123 60.4987H47.8582C48.465 60.4987 48.9568 60.0069 48.9568 59.4C48.9568 58.7931 48.465 58.3014 47.8582 58.3014H43.123C42.5162 58.3014 42.0244 58.7931 42.0244 59.4C42.0244 60.0069 42.5162 60.4987 43.123 60.4987Z" fill="black"/>
<path d="M21.5193 63.6284H16.7842C16.1773 63.6284 15.6855 64.1202 15.6855 64.7271C15.6855 65.3339 16.1773 65.8257 16.7842 65.8257H21.5193C22.1262 65.8257 22.6179 65.3339 22.6179 64.7271C22.6179 64.1202 22.126 63.6284 21.5193 63.6284Z" fill="black"/>
<path d="M48.9565 64.7271C48.9565 64.1202 48.4647 63.6284 47.8579 63.6284H26.2539C25.647 63.6284 25.1553 64.1202 25.1553 64.7271C25.1553 65.3339 25.647 65.8257 26.2539 65.8257H47.8579C48.4647 65.8257 48.9565 65.3339 48.9565 64.7271Z" fill="black"/>
<path d="M57.3281 40.522C57.935 40.522 58.4268 40.0302 58.4268 39.4233V3.46582C58.4268 1.55479 56.8718 0 54.9609 0H12.936C5.80313 0 0 5.80298 0 12.936V20.5358C0 21.1427 0.491748 21.6344 1.09863 21.6344C1.70552 21.6344 2.19727 21.1427 2.19727 20.5358V12.936C2.19727 9.69565 3.64204 6.78823 5.9187 4.81758V51.1942C5.15903 51.6869 4.44419 52.2605 3.78882 52.9159C3.19102 53.5141 2.66001 54.161 2.19727 54.8467V25.6626C2.19727 25.0557 1.70552 24.564 1.09863 24.564C0.491748 24.564 0 25.0557 0 25.6626V62.064C0 69.1969 5.80298 75 12.936 75H56.1445C57.403 75 58.4268 73.9762 58.4268 72.7178V70.3506C58.4268 69.2657 57.6662 68.3571 56.6512 68.1256V56.001C57.6662 55.7697 58.4268 54.8615 58.4268 53.7773V51.4102V44.5503C58.4268 43.9434 57.935 43.4517 57.3281 43.4517C56.7212 43.4517 56.2295 43.9434 56.2295 44.5503V49.1309C56.2011 49.1298 56.1732 49.1266 56.1445 49.1266H12.936C11.2575 49.1266 9.62856 49.4468 8.11611 50.0537V3.34424C9.56675 2.61226 11.2034 2.19727 12.936 2.19727H54.9609C55.6604 2.19727 56.2295 2.76636 56.2295 3.46582V39.4233C56.2295 40.0301 56.7212 40.522 57.3281 40.522ZM56.1445 51.3237C56.1914 51.3237 56.2295 51.3625 56.2295 51.4102V53.7773C56.2295 53.8242 56.1914 53.8623 56.1445 53.8623H13.0562C8.55366 53.8623 4.82124 57.4704 4.73599 61.9056C4.69439 64.124 5.52832 66.2188 7.08442 67.8047C8.64097 69.3907 10.719 70.2642 12.9359 70.2642H35.4842C36.0911 70.2642 36.5829 69.7724 36.5829 69.1655C36.5829 68.5586 36.0911 68.0669 35.4842 68.0669H12.936C11.3139 68.0669 9.79277 67.4272 8.65283 66.2656C7.51333 65.1044 6.90249 63.5707 6.93311 61.9474C6.99536 58.701 9.74224 56.0597 13.0563 56.0597H54.454V68.067H40.6113C40.0044 68.067 39.5127 68.5588 39.5127 69.1657C39.5127 69.7726 40.0044 70.2643 40.6113 70.2643H56.1445C56.1914 70.2643 56.2295 70.3031 56.2295 70.3507V72.7179C56.2295 72.7648 56.1914 72.8029 56.1445 72.8029H12.936C7.0147 72.8029 2.19727 67.9855 2.19727 62.0641C2.19727 59.1964 3.3145 56.499 5.34287 54.4693C7.37124 52.4408 10.0679 51.3237 12.936 51.3237H56.1445Z" fill="black"/>
<path d="M11.2461 25.6622C11.2461 37.2013 20.6338 46.5892 32.173 46.5892C43.7122 46.5892 53.1001 37.2013 53.1001 25.6622C53.1001 14.123 43.7123 4.73511 32.173 4.73511C20.6337 4.73511 11.2461 14.1229 11.2461 25.6622ZM50.9028 25.6622C50.9028 35.9899 42.5007 44.3919 32.173 44.3919C21.8454 44.3919 13.4434 35.9899 13.4434 25.6622C13.4434 15.3346 21.8454 6.93252 32.173 6.93252C42.5007 6.93237 50.9028 15.3346 50.9028 25.6622Z" fill="black"/>
<path d="M29.0481 16.9727L23.779 34.7681L20.3322 25.2867C20.1743 24.8525 19.7616 24.5634 19.2996 24.5634H17.0801C16.4732 24.5634 15.9814 25.0551 15.9814 25.662C15.9814 26.2689 16.4732 26.7607 17.0801 26.7607H18.53L22.8532 38.6526C23.0114 39.0878 23.4248 39.3759 23.8854 39.3759C23.8966 39.3759 23.9079 39.3757 23.919 39.3753C24.393 39.361 24.8045 39.044 24.9391 38.5891L30.9221 18.3834H44.7291C45.336 18.3834 45.8278 17.8916 45.8278 17.2847C45.8278 16.6778 45.336 16.1861 44.7291 16.1861H30.1017C29.6149 16.1859 29.1863 16.5062 29.0481 16.9727Z" fill="black"/>
<path d="M43.0739 22.7543C42.6447 22.3254 41.9492 22.3254 41.5202 22.7543L38.0475 26.2271L34.5748 22.7543C34.1457 22.3255 33.4502 22.3252 33.021 22.7543C32.592 23.1835 32.592 23.879 33.021 24.3081L36.4937 27.7809L33.021 31.2538C32.592 31.683 32.592 32.3785 33.021 32.8075C33.2356 33.022 33.5169 33.1292 33.798 33.1292C34.0791 33.1292 34.3603 33.022 34.5749 32.8075L38.0476 29.3347L41.5203 32.8075C41.7349 33.022 42.016 33.1292 42.2973 33.1292C42.5784 33.1292 42.8596 33.022 43.0742 32.8075C43.5033 32.3783 43.5033 31.6828 43.0742 31.2538L39.6015 27.7809L43.0742 24.3081C43.503 23.879 43.503 23.1835 43.0739 22.7543Z" fill="black"/>
</svg>
