<svg width="68" height="91" viewBox="0 0 68 91" fill="none" xmlns="http://www.w3.org/2000/svg">
<path d="M47.0293 30.8226V83.6613C47.0293 85.2183 46.4108 86.7117 45.3097 87.8127C44.2087 88.9137 42.7154 89.5322 41.1583 89.5322H7.40026C5.84319 89.5322 4.34988 88.9137 3.24886 87.8127C2.14784 86.7117 1.5293 85.2183 1.5293 83.6613V30.8226C1.5293 29.2655 2.14784 27.7722 3.24886 26.6712C4.34988 25.5701 5.84319 24.9516 7.40026 24.9516H47.0293V30.8226Z" fill="#2A2D40"/>
<path d="M47.0294 80.0506V24.9516H7.40039C7.69576 37.0566 11.636 48.7909 18.7061 58.6209C25.7762 68.451 35.6473 75.9196 47.0294 80.0506Z" fill="#474C6A"/>
<path d="M39.6907 30.8226C40.08 30.8226 40.4533 30.9772 40.7286 31.2525C41.0038 31.5277 41.1585 31.901 41.1585 32.2903V46.9677C41.1585 47.357 41.0038 47.7303 40.7286 48.0056C40.4533 48.2808 40.08 48.4355 39.6907 48.4355H8.86813C8.47886 48.4355 8.10554 48.2808 7.83028 48.0056C7.55503 47.7303 7.40039 47.357 7.40039 46.9677V32.2903C7.40039 31.901 7.55503 31.5277 7.83028 31.2525C8.10554 30.9772 8.47886 30.8226 8.86813 30.8226H39.6907Z" fill="#81B4FC"/>
<path d="M7.40039 32.2903V46.9677C7.40039 47.357 7.55503 47.7303 7.83028 48.0056C8.10554 48.2808 8.47886 48.4355 8.86813 48.4355H12.831C10.3347 42.9666 8.67705 37.1526 7.9141 31.1895C7.75486 31.3257 7.62662 31.4944 7.53802 31.6843C7.44941 31.8742 7.40248 32.0808 7.40039 32.2903Z" fill="#5490F5"/>
<path d="M41.1584 55.7742H7.40036C6.58975 55.7742 5.93262 56.4313 5.93262 57.2419V83.6613C5.93262 84.4719 6.58975 85.129 7.40036 85.129H41.1584C41.969 85.129 42.6262 84.4719 42.6262 83.6613V57.2419C42.6262 56.4313 41.969 55.7742 41.1584 55.7742Z" fill="#E2E7F7"/>
<path d="M39.4413 30.8226C39.055 30.8203 38.672 30.8944 38.3143 31.0405C37.9567 31.1865 37.6314 31.4018 37.3571 31.6738L25.6152 43.4158C25.4248 43.6123 25.1967 43.7683 24.9444 43.8742C24.6921 43.9802 24.421 44.0339 24.1474 44.0322C23.8744 44.0322 23.6041 43.9782 23.352 43.8733C23.1 43.7684 22.8712 43.6146 22.6788 43.4209C22.4865 43.2272 22.3343 42.9973 22.2312 42.7445C22.1281 42.4917 22.076 42.221 22.0779 41.948V33.758C22.0779 32.9795 21.7686 32.2328 21.2181 31.6823C20.6676 31.1318 19.921 30.8226 19.1424 30.8226H17.6747C16.1176 30.8226 14.6243 30.204 13.5233 29.103C12.4223 28.002 11.8037 26.5087 11.8037 24.9516V7.33868C11.8037 5.7816 12.4223 4.2883 13.5233 3.18728C14.6243 2.08626 16.1176 1.46771 17.6747 1.46771H60.2392C61.7963 1.46771 63.2896 2.08626 64.3906 3.18728C65.4916 4.2883 66.1102 5.7816 66.1102 7.33868V24.9516C66.1102 26.5087 65.4916 28.002 64.3906 29.103C63.2896 30.204 61.7963 30.8226 60.2392 30.8226H39.4413Z" fill="#FFC239"/>
<path d="M37.5041 5.87097C36.533 5.87081 35.589 6.19168 34.8192 6.78365C34.0494 7.37561 33.4969 8.20546 33.2476 9.14404L29.7691 24.6874C29.7474 24.7601 29.7028 24.8239 29.642 24.8692C29.5812 24.9146 29.5073 24.9391 29.4315 24.9391C29.3556 24.9391 29.2818 24.9146 29.221 24.8692C29.1601 24.8239 29.1156 24.7601 29.0939 24.6874L28.2133 20.2842C28.0708 19.5378 27.6742 18.8637 27.0908 18.3767C26.5075 17.8897 25.7735 17.6198 25.0136 17.6129H20.6104V20.5484H25.0136C25.0931 20.55 25.1697 20.5784 25.231 20.629C25.2923 20.6796 25.3346 20.7495 25.3512 20.8273L26.2318 25.2305C26.3793 25.9706 26.7757 26.6378 27.3552 27.1212C27.9347 27.6045 28.6623 27.8748 29.4168 27.8871C30.1638 27.8906 30.8892 27.6373 31.4717 27.1697C32.0542 26.7021 32.4584 26.0486 32.6165 25.3186L36.095 9.86323C36.1865 9.54849 36.3808 9.27344 36.6468 9.08191C36.9128 8.89039 37.2353 8.79342 37.5628 8.80646H55.8362V5.87097H37.5041Z" fill="#F6F8FF"/>
<path d="M50.3318 12.2263L45.5616 17.5983L40.7915 12.2263L38.5898 14.1784L43.5948 19.8145L38.5898 25.436L40.7915 27.3881L45.5616 22.0162L50.3318 27.3881L52.5334 25.436L47.5284 19.8145L52.5334 14.1784L50.3318 12.2263Z" fill="#F6F8FF"/>
<path d="M35.2871 85.129H41.1581C41.5473 85.129 41.9207 84.9744 42.1959 84.6991C42.4712 84.4239 42.6258 84.0505 42.6258 83.6613V70.4516H35.2871V85.129Z" fill="#C64635"/>
<path d="M42.6262 64.5806V61.6451H36.7552V55.7742H33.8197V61.6451H29.4165V55.7742H26.481V61.6451H22.0778V55.7742H19.1423V61.6451H14.7391V55.7742H11.8036V61.6451H5.93262V64.5806H11.8036V68.9838H5.93262V71.9193H11.8036V76.3226H5.93262V79.258H11.8036V85.129H14.7391V79.258H19.1423V85.129H22.0778V79.258H26.481V85.129H29.4165V79.258H33.8197V85.129H36.7552V71.9193H42.6262V68.9838H36.7552V64.5806H42.6262ZM26.481 64.5806V68.9838H22.0778V64.5806H26.481ZM14.7391 64.5806H19.1423V68.9838H14.7391V64.5806ZM14.7391 76.3226V71.9193H19.1423V76.3226H14.7391ZM22.0778 76.3226V71.9193H26.481V76.3226H22.0778ZM33.8197 76.3226H29.4165V71.9193H33.8197V76.3226ZM33.8197 68.9838H29.4165V64.5806H33.8197V68.9838Z" fill="#B8BCE1"/>
<path d="M7.40033 54.3065C6.62179 54.3065 5.87514 54.6157 5.32463 55.1662C4.77412 55.7167 4.46484 56.4634 4.46484 57.2419V83.6613C4.46484 84.4398 4.77412 85.1865 5.32463 85.737C5.87514 86.2875 6.62179 86.5968 7.40033 86.5968H41.1584C41.9369 86.5968 42.6836 86.2875 43.2341 85.737C43.7846 85.1865 44.0939 84.4398 44.0939 83.6613V57.2419C44.0939 56.4634 43.7846 55.7167 43.2341 55.1662C42.6836 54.6157 41.9369 54.3065 41.1584 54.3065H7.40033ZM41.1584 61.6452H36.7552V57.2419H41.1584V61.6452ZM26.481 61.6452H22.0777V57.2419H26.481V61.6452ZM29.4165 57.2419H33.8197V61.6452H29.4165V57.2419ZM22.0777 68.9839V64.5807H26.481V68.9839H22.0777ZM26.481 71.9194V76.3226H22.0777V71.9194H26.481ZM19.1423 61.6452H14.739V57.2419H19.1423V61.6452ZM19.1423 64.5807V68.9839H14.739V64.5807H19.1423ZM11.8036 68.9839H7.40033V64.5807H11.8036V68.9839ZM11.8036 71.9194V76.3226H7.40033V71.9194H11.8036ZM14.739 71.9194H19.1423V76.3226H14.739V71.9194ZM19.1423 79.2581V83.6613H14.739V79.2581H19.1423ZM22.0777 79.2581H26.481V83.6613H22.0777V79.2581ZM29.4165 79.2581H33.8197V83.6613H29.4165V79.2581ZM33.8197 76.3226H29.4165V71.9194H33.8197V76.3226ZM29.4165 68.9839V64.5807H33.8197V68.9839H29.4165ZM36.7552 64.5807H41.1584V68.9839H36.7552V64.5807ZM11.8036 57.2419V61.6452H7.40033V57.2419H11.8036ZM7.40033 79.2581H11.8036V83.6613H7.40033V79.2581ZM36.7552 83.6613V71.9194H41.1584V83.6613H36.7552Z" fill="black"/>
<path d="M60.2389 0H17.6744C15.7281 0 13.8615 0.773183 12.4852 2.14946C11.1089 3.52573 10.3357 5.39236 10.3357 7.33871V23.4839H7.40023C5.45389 23.4839 3.58726 24.2571 2.21098 25.6333C0.834707 27.0096 0.0615234 28.8762 0.0615234 30.8226V83.6613C0.0615234 85.6076 0.834707 87.4743 2.21098 88.8505C3.58726 90.2268 5.45389 91 7.40023 91H41.1583C43.1046 91 44.9713 90.2268 46.3475 88.8505C47.7238 87.4743 48.497 85.6076 48.497 83.6613V32.2903H60.2389C61.2027 32.2903 62.157 32.1005 63.0473 31.7317C63.9377 31.3629 64.7467 30.8223 65.4282 30.1409C66.1097 29.4594 66.6502 28.6504 67.019 27.76C67.3878 26.8696 67.5777 25.9153 67.5777 24.9516V7.33871C67.5777 6.37498 67.3878 5.42068 67.019 4.53031C66.6502 3.63993 66.1097 2.83092 65.4282 2.14946C64.7467 1.468 63.9377 0.927431 63.0473 0.558626C62.157 0.189821 61.2027 0 60.2389 0ZM24.1472 45.5C25.0885 45.4975 25.9907 45.1229 26.657 44.4579L38.3989 32.716C38.5361 32.5799 38.6987 32.4723 38.8776 32.3993C39.0564 32.3262 39.2479 32.2892 39.441 32.2903H39.6906V46.9677H8.86798V32.2903H19.1422C19.5314 32.2903 19.9048 32.445 20.18 32.7202C20.4553 32.9955 20.6099 33.3688 20.6099 33.7581V41.9627C20.6099 42.9009 20.9826 43.8006 21.646 44.464C22.3093 45.1273 23.209 45.5 24.1472 45.5ZM45.5615 83.6613C45.5615 84.8291 45.0976 85.9491 44.2718 86.7748C43.4461 87.6006 42.3261 88.0645 41.1583 88.0645H7.40023C6.23243 88.0645 5.11245 87.6006 4.28668 86.7748C3.46092 85.9491 2.99701 84.8291 2.99701 83.6613V30.8226C2.99701 29.6548 3.46092 28.5348 4.28668 27.709C5.11245 26.8833 6.23243 26.4194 7.40023 26.4194H10.4825C10.6924 27.486 11.1443 28.4903 11.8035 29.3548H8.86798C8.08944 29.3548 7.34279 29.6641 6.79228 30.2146C6.24177 30.7651 5.93249 31.5118 5.93249 32.2903V46.9677C5.93249 47.7463 6.24177 48.4929 6.79228 49.0434C7.34279 49.594 8.08944 49.9032 8.86798 49.9032H39.6906C40.4691 49.9032 41.2157 49.594 41.7663 49.0434C42.3168 48.4929 42.626 47.7463 42.626 46.9677V32.2903H45.5615V83.6613ZM64.6422 24.9516C64.6422 26.1194 64.1783 27.2394 63.3525 28.0652C62.5267 28.8909 61.4068 29.3548 60.2389 29.3548H39.441C38.2736 29.3559 37.1544 29.8204 36.3294 30.6465L24.5875 42.3884C24.4993 42.4647 24.3918 42.5151 24.2768 42.534C24.1617 42.5529 24.0437 42.5396 23.9358 42.4955C23.8278 42.4514 23.7342 42.3783 23.6653 42.2843C23.5964 42.1902 23.5549 42.0789 23.5454 41.9627V33.7581C23.5454 32.5903 23.0815 31.4703 22.2557 30.6445C21.43 29.8187 20.31 29.3548 19.1422 29.3548H17.6744C16.5066 29.3548 15.3866 28.8909 14.5609 28.0652C13.7351 27.2394 13.2712 26.1194 13.2712 24.9516V7.33871C13.2712 6.1709 13.7351 5.05092 14.5609 4.22516C15.3866 3.39939 16.5066 2.93548 17.6744 2.93548H60.2389C61.4068 2.93548 62.5267 3.39939 63.3525 4.22516C64.1783 5.05092 64.6422 6.1709 64.6422 7.33871V24.9516Z" fill="black"/>
<path d="M33.2476 9.14404L29.7691 24.6874C29.7474 24.7601 29.7028 24.8239 29.642 24.8692C29.5812 24.9146 29.5073 24.9391 29.4315 24.9391C29.3556 24.9391 29.2818 24.9146 29.221 24.8692C29.1601 24.8239 29.1156 24.7601 29.0939 24.6874L28.2133 20.2842C28.0682 19.539 27.6709 18.8665 27.0881 18.38C26.5053 17.8934 25.7727 17.6225 25.0136 17.6129H20.6104V20.5484H25.0136C25.0931 20.55 25.1697 20.5784 25.231 20.629C25.2923 20.6796 25.3346 20.7495 25.3512 20.8273L26.2318 25.2305C26.3793 25.9706 26.7757 26.6378 27.3552 27.1212C27.9347 27.6045 28.6623 27.8748 29.4168 27.8871C30.1638 27.8906 30.8892 27.6373 31.4717 27.1697C32.0542 26.7021 32.4584 26.0486 32.6165 25.3186L36.095 9.87791C36.1838 9.56043 36.3769 9.28209 36.6431 9.08772C36.9094 8.89335 37.2333 8.79428 37.5628 8.80646H55.8362V5.87097H37.5041C36.533 5.87081 35.589 6.19168 34.8192 6.78365C34.0494 7.37561 33.4969 8.20546 33.2476 9.14404Z" fill="black"/>
<path d="M50.3318 12.241L45.5616 17.5982L40.7915 12.241L38.5898 14.1784L43.5948 19.8145L38.5898 25.4506L40.7915 27.3881L45.5616 22.0161L50.3318 27.3881L52.5334 25.4506L47.5284 19.8145L52.5334 14.1784L50.3318 12.241Z" fill="black"/>
</svg>
