<svg width="84" height="84" viewBox="0 0 84 84" fill="none" xmlns="http://www.w3.org/2000/svg">
<g clip-path="url(#clip0_0_54311)">
<path d="M17.9648 5.87097H73.6501V82.7695H17.9648V5.87097Z" fill="#B6C1CC"/>
<path d="M12.6621 1.23047H68.3474V78.129H12.6621V1.23047Z" fill="#E5ECF1"/>
<path d="M74.6437 69.8426H12.6607L6.03125 64.8707L12.6607 59.8987H74.6437C76.4743 59.8987 77.9582 61.3827 77.9582 63.2133V66.5279C77.9582 68.3586 76.4743 69.8426 74.6437 69.8426Z" fill="#FCDD2E"/>
<path d="M74.6453 66.1966H7.80078L12.6623 69.8427H74.6453C76.4759 69.8427 77.9598 68.3588 77.9598 66.5282V63.2136C77.9598 63.1577 77.9542 63.1032 77.9514 63.0479C77.8645 64.8008 76.4199 66.1966 74.6453 66.1966Z" fill="#F9C301"/>
<path d="M68.3457 69.8425H74.6436C76.4742 69.8425 77.9581 68.3586 77.9581 66.528V63.2134C77.9581 61.3828 76.4742 59.8989 74.6436 59.8989H68.3457V69.8425Z" fill="#FC8086"/>
<path d="M74.6436 66.1966H68.3457V69.8427H74.6436C76.4742 69.8427 77.9581 68.3588 77.9581 66.5282V63.2136C77.9581 63.1577 77.9525 63.1032 77.9498 63.0479C77.8628 64.8008 76.4181 66.1966 74.6436 66.1966Z" fill="#FA4954"/>
<path d="M59.7276 6.62927H34.0396C33.5467 6.62927 33.1015 6.92327 32.908 7.37641L27.2224 20.6894L23.0659 11.3374C22.8684 10.8931 22.4277 10.6066 21.9414 10.6066H19.6211C18.9414 10.6066 18.3906 11.1576 18.3906 11.8371C18.3906 12.5167 18.9414 13.0676 19.6211 13.0676H21.1418L26.1204 24.2694C26.318 24.714 26.7588 25.0002 27.2449 25.0002H27.2539C27.7433 24.9966 28.1843 24.7032 28.3766 24.253L34.8523 9.09021H59.728C60.4077 9.09021 60.9584 8.53929 60.9584 7.85974C60.9584 7.18019 60.4074 6.62927 59.7276 6.62927Z" fill="black"/>
<path d="M44.4683 24.4755C44.7077 24.8174 45.0895 25.0003 45.4775 25.0003C45.721 25.0003 45.9672 24.9282 46.182 24.7779C46.7388 24.3882 46.8741 23.6209 46.4845 23.0642L43.4981 18.798L46.4845 14.5317C46.8741 13.9749 46.7388 13.2077 46.182 12.818C45.6253 12.4282 44.858 12.5638 44.4683 13.1204L41.9961 16.6522L39.5238 13.1204C39.1343 12.5638 38.3668 12.4281 37.8102 12.818C37.2534 13.2077 37.118 13.975 37.5077 14.5317L40.4941 18.798L37.5077 23.0642C37.118 23.6209 37.2534 24.3881 37.8102 24.7779C38.0249 24.9283 38.271 25.0003 38.5147 25.0003C38.9027 25.0003 39.2845 24.8174 39.5238 24.4755L41.9961 20.9437L44.4683 24.4755Z" fill="black"/>
<path d="M19.6211 30.9665H29.5649C30.2446 30.9665 30.7954 30.4156 30.7954 29.736C30.7954 29.0565 30.2446 28.5056 29.5649 28.5056H19.6211C18.9414 28.5056 18.3906 29.0565 18.3906 29.736C18.3906 30.4156 18.9415 30.9665 19.6211 30.9665Z" fill="black"/>
<path d="M19.6211 36.6012H29.5649C30.2446 36.6012 30.7954 36.0503 30.7954 35.3707C30.7954 34.6912 30.2446 34.1403 29.5649 34.1403H19.6211C18.9414 34.1403 18.3906 34.6912 18.3906 35.3707C18.3906 36.0503 18.9415 36.6012 19.6211 36.6012Z" fill="black"/>
<path d="M59.7288 28.5056H49.7852C49.1054 28.5056 48.5547 29.0565 48.5547 29.736C48.5547 30.4156 49.1054 30.9665 49.7852 30.9665H59.7288C60.4085 30.9665 60.9593 30.4156 60.9593 29.736C60.9593 29.0565 60.4085 28.5056 59.7288 28.5056Z" fill="black"/>
<path d="M59.7288 34.1403H49.7852C49.1054 34.1403 48.5547 34.6912 48.5547 35.3707C48.5547 36.0503 49.1054 36.6012 49.7852 36.6012H59.7288C60.4085 36.6012 60.9593 36.0503 60.9593 35.3707C60.9593 34.6912 60.4085 34.1403 59.7288 34.1403Z" fill="black"/>
<path d="M31.4315 44.0698C30.8748 43.68 30.1075 43.8155 29.7178 44.3722L28.24 46.4833L26.7621 44.3722C26.3725 43.8155 25.6051 43.6798 25.0485 44.0698C24.4916 44.4595 24.3563 45.2268 24.7459 45.7835L26.738 48.6291L24.7459 51.4748C24.3563 52.0314 24.4916 52.7988 25.0485 53.1884C25.2632 53.3389 25.5093 53.4109 25.753 53.4109C26.141 53.4109 26.5227 53.228 26.7621 52.8859L28.24 50.7747L29.7178 52.8859C29.9572 53.2278 30.339 53.4109 30.727 53.4109C30.9705 53.4109 31.2167 53.3387 31.4315 53.1884C31.9883 52.7988 32.1237 52.0314 31.734 51.4748L29.742 48.6291L31.734 45.7835C32.1237 45.2268 31.9881 44.4595 31.4315 44.0698Z" fill="black"/>
<path d="M40.9586 53.1886C41.1734 53.339 41.4195 53.411 41.6631 53.411C42.0511 53.411 42.4329 53.2281 42.6723 52.886L47.6442 45.7835C48.0338 45.2268 47.8985 44.4595 47.3416 44.0698C46.785 43.68 46.0178 43.8155 45.628 44.3722L44.1501 46.4833L42.6723 44.3722C42.2826 43.8155 41.5153 43.6798 40.9586 44.0698C40.4018 44.4595 40.2664 45.2268 40.6561 45.7835L42.6481 48.6293L40.6561 51.4749C40.2664 52.0316 40.402 52.7989 40.9586 53.1886Z" fill="black"/>
<path d="M36.1949 52.3456C36.8746 52.3456 37.4253 51.7947 37.4253 51.1152V49.8598H38.6807C39.3604 49.8598 39.9112 49.3088 39.9112 48.6293C39.9112 47.9497 39.3604 47.3988 38.6807 47.3988H37.4253V46.1432C37.4253 45.4637 36.8746 44.9128 36.1949 44.9128C35.5151 44.9128 34.9644 45.4637 34.9644 46.1432V47.3988H33.709C33.0293 47.3988 32.4785 47.9497 32.4785 48.6293C32.4785 49.3088 33.0293 49.8598 33.709 49.8598H34.9644V51.1152C34.9644 51.7947 35.5151 52.3456 36.1949 52.3456Z" fill="black"/>
<path d="M59.7286 45.0785H56.4141C55.7344 45.0785 55.1836 45.6294 55.1836 46.309C55.1836 46.9885 55.7344 47.5394 56.4141 47.5394H59.7286C60.4083 47.5394 60.9591 46.9885 60.9591 46.309C60.9591 45.6294 60.4083 45.0785 59.7286 45.0785Z" fill="black"/>
<path d="M59.7286 49.719H56.4141C55.7344 49.719 55.1836 50.2699 55.1836 50.9495C55.1836 51.629 55.7344 52.1799 56.4141 52.1799H59.7286C60.4083 52.1799 60.9591 51.629 60.9591 50.9495C60.9591 50.2699 60.4083 49.719 59.7286 49.719Z" fill="black"/>
<path d="M21.0827 55.1244C21.3231 55.3646 21.6381 55.4848 21.9529 55.4848C22.2677 55.4848 22.5827 55.3647 22.8231 55.1244C23.3036 54.6438 23.3036 53.8647 22.8231 53.3843C21.5529 52.1142 20.8534 50.4255 20.8534 48.6295C20.8534 46.8333 21.5529 45.1446 22.8231 43.8744C23.3036 43.3939 23.3036 42.6148 22.8231 42.1344C22.3424 41.6539 21.5634 41.6539 21.0829 42.1344C19.3481 43.8694 18.3926 46.1759 18.3926 48.6295C18.3923 51.0827 19.3479 53.3894 21.0827 55.1244Z" fill="black"/>
<path d="M49.0712 55.1243C49.3115 55.3645 49.6266 55.4848 49.9414 55.4848C50.2562 55.4848 50.5712 55.3647 50.8116 55.1243C52.5464 53.3894 53.5019 51.0828 53.5019 48.6293C53.5019 46.1757 52.5464 43.869 50.8116 42.1342C50.3309 41.6537 49.5519 41.6537 49.0714 42.1342C48.5908 42.6147 48.5908 43.3939 49.0714 43.8743C50.3415 45.1444 51.0411 46.8331 51.0411 48.6293C51.0411 50.4254 50.3415 52.1141 49.0714 53.3841C48.5908 53.8647 48.5908 54.6438 49.0712 55.1243Z" fill="black"/>
<path d="M74.8803 58.6745V31.0898C74.8803 30.4103 74.3295 29.8594 73.6498 29.8594C72.9701 29.8594 72.4193 30.4103 72.4193 31.0898V58.6684H69.5778V7.10145H72.4195V25.3493C72.4195 26.0288 72.9703 26.5798 73.65 26.5798C74.3297 26.5798 74.8804 26.0288 74.8804 25.3493V5.87098C74.8804 5.19143 74.3297 4.64051 73.65 4.64051H69.5778V1.23047C69.5778 0.550922 69.027 0 68.3473 0H12.6612C11.9815 0 11.4308 0.550922 11.4308 1.23047V43.3074C11.4308 43.987 11.9815 44.5379 12.6612 44.5379C13.3409 44.5379 13.8917 43.987 13.8917 43.3074V2.46094H67.1168V58.6684H59.1265C58.4468 58.6684 57.896 59.2193 57.896 59.8989C57.896 60.5784 58.4468 61.1294 59.1265 61.1294H67.1162V68.6123H13.0717L9.72369 66.1013H10.8387C11.5184 66.1013 12.0691 65.5504 12.0691 64.8708C12.0691 64.1913 11.5184 63.6403 10.8387 63.6403H9.72369L13.0717 61.1294H53.3569C54.0366 61.1294 54.5874 60.5784 54.5874 59.8989C54.5874 59.2193 54.0366 58.6684 53.3569 58.6684H13.8917V49.0685C13.8917 48.3889 13.3409 47.838 12.6612 47.838C11.9815 47.838 11.4308 48.3889 11.4308 49.0685V59.284L5.294 63.8864C4.6494 64.3699 4.6494 65.3717 5.294 65.8552L11.4308 70.4578V78.13C11.4308 78.8096 11.9815 79.3605 12.6612 79.3605H16.7349V82.7697C16.7349 83.4492 17.2857 84.0002 17.9654 84.0002H73.6498C74.3295 84.0002 74.8803 83.4492 74.8803 82.7697V71.0671C77.2774 70.9441 79.1897 68.9551 79.1897 66.5282V63.2136C79.1896 60.7865 77.2774 58.7975 74.8803 58.6745ZM13.8917 71.0732H67.1168V76.8995H13.8917V71.0732ZM19.1958 81.5391V79.3603H68.3473C69.027 79.3603 69.5778 78.8094 69.5778 78.1298V71.073H72.4193V81.5391H19.1958ZM76.7286 66.528C76.7286 67.6773 75.7936 68.6123 74.6444 68.6123H69.577V61.1294H73.6418C73.6444 61.1294 73.647 61.1297 73.6497 61.1297C73.6523 61.1297 73.6549 61.1294 73.6575 61.1294H74.6442C75.7935 61.1294 76.7285 62.0644 76.7285 63.2134L76.7286 66.528Z" fill="black"/>
</g>
<defs>
<clipPath id="clip0_0_54311">
<rect width="84" height="84" fill="white"/>
</clipPath>
</defs>
</svg>
