<svg width="28" height="27" viewBox="0 0 28 27" fill="none" xmlns="http://www.w3.org/2000/svg">
<g clip-path="url(#clip0_0_62931)">
<path d="M13.7666 0.900024V9.90002H25.8999L22.1666 5.40002L25.8999 0.900024H13.7666Z" fill="#59B792"/>
<path d="M23.1005 23.4C23.1005 21.6602 18.295 20.25 12.3671 20.25C6.43923 20.25 1.63379 21.6602 1.63379 23.4C1.63379 25.1398 6.43923 26.55 12.3671 26.55C18.295 26.55 23.1005 25.1398 23.1005 23.4Z" fill="#59B792"/>
<path d="M15.9258 19.9349L15.8715 19.9323L15.8741 20.4021L15.8273 20.8297C20.2481 21.2849 22.6337 22.4833 22.6337 23.382C22.6337 24.5169 18.7281 26.1 12.367 26.1C6.00592 26.1 2.10033 24.5169 2.10033 23.382C2.10033 22.482 4.48584 21.2827 8.86243 20.8305L8.85765 19.9305L8.8082 19.9332C5.11452 20.3131 1.16699 21.4201 1.16699 23.382C1.16699 25.7324 6.93744 27 12.367 27C17.7965 27 23.567 25.7324 23.567 23.382C23.567 21.4201 19.6195 20.3131 15.9258 19.9349Z" fill="#231F20"/>
<path d="M11.9004 0H12.8337V23.4H11.9004V0Z" fill="#231F20"/>
<path d="M26.8719 0.450012H13.3008V10.35H26.8719L22.7651 5.40001L26.8719 0.450012ZM24.9296 9.45001H14.2341V1.35001H24.9296L21.5698 5.40001L24.9296 9.45001Z" fill="#231F20"/>
</g>
<defs>
<clipPath id="clip0_0_62931">
<rect width="28" height="27" fill="white"/>
</clipPath>
</defs>
</svg>
