<svg width="83" height="87" viewBox="0 0 83 87" fill="none" xmlns="http://www.w3.org/2000/svg">
<g clip-path="url(#clip0_986_1466)">
<path d="M69.5305 8.27306C71.1034 8.27306 72.3784 6.93582 72.3784 5.28625C72.3784 3.63668 71.1034 2.29944 69.5305 2.29944C67.9577 2.29944 66.6826 3.63668 66.6826 5.28625C66.6826 6.93582 67.9577 8.27306 69.5305 8.27306Z" fill="#F44321"/>
<path d="M41.1125 23.4831C42.6854 23.4831 43.9604 22.1458 43.9604 20.4963C43.9604 18.8467 42.6854 17.5095 41.1125 17.5095C39.5397 17.5095 38.2646 18.8467 38.2646 20.4963C38.2646 22.1458 39.5397 23.4831 41.1125 23.4831Z" fill="#04C051"/>
<path d="M26.9055 41.5316C28.4783 41.5316 29.7534 40.1944 29.7534 38.5448C29.7534 36.8952 28.4783 35.558 26.9055 35.558C25.3327 35.558 24.0576 36.8952 24.0576 38.5448C24.0576 40.1944 25.3327 41.5316 26.9055 41.5316Z" fill="#00A8E2"/>
<path d="M12.6944 33.5355C14.2672 33.5355 15.5421 32.1983 15.5421 30.5488C15.5421 28.8994 14.2672 27.5622 12.6944 27.5622C11.1217 27.5622 9.84668 28.8994 9.84668 30.5488C9.84668 32.1983 11.1217 33.5355 12.6944 33.5355Z" fill="#485360"/>
<path d="M62.5922 85.5732L78.6087 85.5701C79.8322 85.57 80.8231 84.5301 80.8229 83.2466C80.8227 81.9642 79.831 80.9241 78.6079 80.9243L62.4188 80.927L44.1636 80.9307L38.0822 80.9319L27.9744 80.9341L3.6383 80.9381C2.41503 80.9384 1.42383 81.9783 1.42383 83.2618C1.42399 84.5442 2.41567 85.5841 3.6391 85.5839L27.9754 85.5797L38.0834 85.5775L44.1647 85.5765L58.0118 85.574" fill="#D6CCC5"/>
<path d="M76.6422 36.4996L76.6401 26.1595C76.6397 24.3797 75.2638 22.937 73.5669 22.9374L65.502 22.9387C63.8049 22.9392 62.4294 24.3824 62.4297 26.1622L62.4387 80.9272L76.6489 80.9243L76.6424 41.2682" fill="#F44321"/>
<path d="M62.4382 80.9274L62.4333 49.028C62.4329 47.2482 61.0569 45.8054 59.3599 45.8057L51.2949 45.8074C49.5978 45.8077 48.2223 47.2506 48.2227 49.0304L48.2278 80.9299L62.4382 80.9274Z" fill="#FE9900"/>
<path d="M48.2286 80.9297L48.2222 41.3699C48.2217 39.5901 46.8456 38.1476 45.1489 38.1479L37.0837 38.1494C35.3868 38.1496 34.0114 39.5927 34.0117 41.3725L34.0184 80.9322L48.2286 80.9297Z" fill="#04C051"/>
<path d="M34.0188 80.9322L34.0151 59.4178C34.0148 57.638 32.6388 56.1954 30.9419 56.1959L22.877 56.1972C21.1799 56.1975 19.8044 57.6406 19.8047 59.4203L19.8082 80.935L34.0188 80.9322Z" fill="#1CC0F9"/>
<path d="M19.8079 80.9351L19.8031 51.4219C19.8029 49.6419 18.4268 48.1994 16.73 48.1996L8.66504 48.2014C6.96787 48.2014 5.59245 49.6446 5.59277 51.4244L5.59758 80.9376L19.8079 80.9351Z" fill="#485360"/>
<path d="M5.56561 83.2653C5.56529 81.9822 6.5565 80.9421 7.77992 80.9419L32.1165 80.9376L42.2241 80.9356L48.3055 80.9346L66.5607 80.9307L78.6952 80.9285C78.6659 80.9275 78.6376 80.924 78.6083 80.9241L62.4191 80.9268L44.1639 80.9305L38.0825 80.9315L27.9747 80.9337L3.6383 80.9381C2.41503 80.9384 1.42383 81.9783 1.42383 83.2617C1.42399 84.5442 2.41567 85.5841 3.6391 85.5839L7.69344 85.5832C6.51069 85.5349 5.56561 84.5173 5.56561 83.2653Z" fill="#BCB8B5"/>
<path d="M66.5716 26.1658C66.5713 24.3861 67.9467 22.9429 69.6439 22.9425L73.6529 22.9419C73.6239 22.9412 73.5959 22.9375 73.5669 22.9375L65.502 22.9388C63.8049 22.9393 62.4294 24.3825 62.4297 26.1623L62.4387 80.9273L66.5806 80.9261L66.5716 26.1658Z" fill="#C6281C"/>
<path d="M52.3646 49.0341C52.3643 47.2543 53.7395 45.8115 55.4369 45.8113L59.4476 45.8104C59.4183 45.8096 59.3897 45.8061 59.3599 45.8059L51.2949 45.8076C49.5978 45.8079 48.2223 47.2508 48.2227 49.0306L48.2278 80.9301L52.3696 80.9294L52.3646 49.0341Z" fill="#EF7A06"/>
<path d="M38.1537 41.3764C38.1533 39.5966 39.5284 38.1533 41.2256 38.1529L45.2348 38.1526C45.206 38.1518 45.1779 38.1481 45.1489 38.1481L37.0837 38.1496C35.3868 38.1498 34.0114 39.5929 34.0117 41.3727L34.0184 80.9324L38.1602 80.9319L38.1537 41.3764Z" fill="#02A544"/>
<path d="M23.9457 59.4244C23.9453 57.6446 25.3208 56.2016 27.0179 56.2013L31.0282 56.2006C30.9992 56.1998 30.9706 56.1962 30.9409 56.1962L22.876 56.1976C21.179 56.1979 19.8034 57.6409 19.8037 59.4207L19.8072 80.9354L23.949 80.9347L23.9457 59.4244Z" fill="#00A8E2"/>
<path d="M9.73472 51.4284C9.7344 49.6487 11.1097 48.2053 12.807 48.2051L16.8174 48.2045C16.7881 48.2036 16.7595 48.1998 16.73 48.1998L8.66504 48.2016C6.96787 48.2016 5.59245 49.6448 5.59277 51.4246L5.59758 80.9378L9.73952 80.9371L9.73472 51.4284Z" fill="#364351"/>
<path d="M55.3254 31.1406C56.8983 31.1406 58.1733 29.8034 58.1733 28.1538C58.1733 26.5042 56.8983 25.167 55.3254 25.167C53.7526 25.167 52.4775 26.5042 52.4775 28.1538C52.4775 29.8034 53.7526 31.1406 55.3254 31.1406Z" fill="#FE9900"/>
<path d="M78.608 79.5666H77.9432L77.9368 41.268C77.9365 40.5181 77.3571 39.9103 76.642 39.9105C75.9269 39.9107 75.3474 40.5186 75.3478 41.2684L75.3542 79.5669L67.679 79.5686L63.7331 79.5693L63.7317 71.5105L63.728 49.0278C63.728 49.026 63.7278 49.0241 63.7278 49.0224L63.724 26.1618C63.7238 25.1335 64.5214 24.2967 65.5019 24.2964L73.567 24.295C74.5475 24.2949 75.345 25.1313 75.3454 26.1598L75.3474 36.4999C75.3478 37.2497 75.9272 37.8574 76.6423 37.8573C77.3574 37.8571 77.9368 37.2492 77.9365 36.4992L77.9344 26.1591C77.9338 23.6337 75.9746 21.5797 73.5673 21.5797H73.5667L65.5012 21.581C63.0931 21.5817 61.1344 23.6369 61.1349 26.1625L61.1379 44.8464C60.5944 44.5911 59.9928 44.4482 59.3597 44.4482L51.2946 44.4499C50.6716 44.4499 50.0691 44.5872 49.5167 44.8458L49.5163 41.3698C49.5158 38.8449 47.5566 36.7905 45.1483 36.7905L37.0832 36.792C35.9163 36.7922 34.8201 37.2689 33.9951 38.1341C33.1706 38.9993 32.7166 40.1497 32.7167 41.373L32.7191 55.2368C32.1756 54.9816 31.5742 54.8385 30.9411 54.8385L22.876 54.8399C22.2429 54.84 21.6413 54.9833 21.0976 55.2388L21.097 51.422C21.0966 48.8965 19.1371 46.8421 16.7292 46.8422L8.6644 46.8441C7.49751 46.8441 6.40108 47.3208 5.57612 48.1858C4.75148 49.0512 4.29728 50.2016 4.2976 51.4249L4.30224 79.5805H3.6376C1.70244 79.5811 0.128586 81.2327 0.128906 83.2621C0.129066 84.245 0.494221 85.169 1.15711 85.8642C1.82031 86.5594 2.70149 86.9421 3.63904 86.9419L58.0117 86.932C58.7266 86.9318 59.3061 86.324 59.3059 85.5742C59.3059 84.8242 58.7262 84.2165 58.0111 84.2166L3.63872 84.2265C3.39256 84.2265 3.16145 84.1261 2.98784 83.9439C2.81392 83.7616 2.71798 83.5194 2.71798 83.2617C2.71798 82.7294 3.13102 82.2961 3.6384 82.2959L5.59726 82.2956L19.8074 82.2931L25.3177 82.2921L53.9571 82.2868L62.4384 82.2853L66.2399 82.2847L78.6079 82.2825C79.1151 82.2825 79.5283 82.7153 79.5283 83.2473C79.5283 83.7796 79.1156 84.2129 78.6084 84.2129L62.592 84.216C61.8769 84.2161 61.2975 84.824 61.2976 85.5738C61.2978 86.3238 61.8774 86.9315 62.5923 86.9313L78.6088 86.9283C80.5438 86.928 82.1179 85.2767 82.1174 83.247C82.1175 81.2169 80.5432 79.5661 78.608 79.5666ZM50.0382 47.7115C50.3739 47.3592 50.8204 47.1651 51.2956 47.1649L59.3607 47.1632C60.3401 47.1632 61.137 47.9982 61.1389 49.0246L61.1439 79.5693L49.5228 79.5715L49.5206 66.0752L49.5179 49.0285C49.5179 48.5313 49.7025 48.0633 50.0382 47.7115ZM35.8266 40.0535C36.1623 39.7014 36.6087 39.5071 37.0837 39.5071L45.1491 39.5055C46.1296 39.5055 46.9272 40.3419 46.9273 41.37L46.9286 49.0278C46.9286 49.0287 46.9286 49.0295 46.9286 49.0303L46.9336 79.5722L35.3129 79.5743L35.3093 59.8636L35.3063 41.3722C35.3063 40.874 35.4909 40.4057 35.8266 40.0535ZM22.8768 57.5549L30.9424 57.5535C31.9224 57.5535 32.7199 58.3899 32.7201 59.418L32.7236 79.5747L26.3778 79.576L21.1024 79.5768L21.0992 59.4198C21.0987 58.3919 21.8965 57.5551 22.8768 57.5549ZM6.88731 51.4239C6.88731 50.9257 7.07197 50.4574 7.40782 50.1053C7.74351 49.7531 8.18986 49.5589 8.6652 49.5589L16.73 49.5571C17.7105 49.5569 18.5084 50.3934 18.5084 51.4219L18.5122 74.1034L18.513 79.5774L6.89212 79.5794L6.88731 51.4239Z" fill="#231F20"/>
<path d="M12.6948 34.893H12.6953C13.7999 34.8928 14.8039 34.436 15.5472 33.6942L22.8272 37.7903C22.7861 38.0374 22.7641 38.2895 22.7641 38.5453C22.7643 40.9404 24.6226 42.8888 26.9062 42.8888H26.9072C29.1912 42.8883 31.0492 40.9392 31.049 38.5436C31.0488 37.6929 30.8132 36.899 30.4082 36.2282L39.6074 24.5421C40.0746 24.7341 40.5823 24.8406 41.1135 24.8406H41.1141C42.2452 24.8406 43.2714 24.3619 44.0197 23.5884L51.2336 27.4755C51.2003 27.6969 51.1826 27.9238 51.1826 28.1548C51.1831 30.5498 53.0414 32.4983 55.3252 32.4983H55.3259C57.6098 32.4978 59.4678 30.5485 59.4673 28.1531C59.4672 27.1272 59.1254 26.1839 58.5562 25.4399L68.4684 9.48429C68.8079 9.57903 69.164 9.63009 69.5315 9.63009H69.5323C71.8163 9.62959 73.6743 7.68032 73.6738 5.28492C73.6736 2.89037 71.8152 0.941772 69.531 0.941772C68.4245 0.94194 67.3841 1.39394 66.6019 2.2148C65.8197 3.03533 65.3891 4.12662 65.3892 5.28694C65.3894 6.31306 65.7312 7.25637 66.3007 8.00046L56.3887 23.9558C56.0488 23.8609 55.6923 23.8098 55.3246 23.8098C54.1937 23.81 53.1674 24.2887 52.4194 25.0622L45.2055 21.175C45.2388 20.9537 45.2564 20.7269 45.2564 20.4958C45.2559 18.1007 43.3978 16.1523 41.1133 16.1523C40.0068 16.1525 38.9668 16.6045 38.1842 17.4253C37.4022 18.246 36.9714 19.3373 36.9717 20.498C36.9719 21.3486 37.2073 22.1422 37.612 22.8129L28.4127 34.4991C27.9455 34.3071 27.4375 34.2005 26.9059 34.2005C25.8343 34.2006 24.8255 34.6258 24.0524 35.3981L16.7735 31.3027C16.8147 31.0574 16.8374 30.8053 16.8373 30.548C16.8371 28.1528 14.9787 26.204 12.6942 26.204C10.4102 26.2045 8.55225 28.1536 8.55273 30.5488C8.55241 32.9442 10.4107 34.893 12.6948 34.893ZM68.4328 4.13451C68.7261 3.82679 69.1162 3.65715 69.5315 3.65715C70.3879 3.65715 71.0847 4.38781 71.0847 5.28576C71.085 6.18406 70.3882 6.91505 69.5317 6.91522L69.5313 8.27291V6.91522C68.675 6.91522 67.9783 6.18456 67.978 5.28627C67.9782 4.8514 68.1396 4.44223 68.4328 4.13451ZM55.3249 26.5253C56.1814 26.5253 56.8784 27.256 56.8784 28.1543C56.8786 29.0526 56.1817 29.7834 55.3251 29.7837C54.4687 29.7836 53.7719 29.0529 53.7717 28.1551C53.7717 27.2565 54.4686 26.5255 55.3249 26.5253ZM40.0151 19.345C40.3084 19.0373 40.6985 18.8677 41.1138 18.8677C41.9702 18.8677 42.6667 19.5983 42.667 20.4963C42.667 21.3946 41.9705 22.1254 41.1138 22.1256L41.1135 23.4833V22.1256C40.2571 22.1256 39.5606 21.3951 39.5603 20.4971C39.5603 20.0619 39.7219 19.6527 40.0151 19.345ZM25.8076 37.393C26.1008 37.0853 26.491 36.9157 26.9062 36.9157C27.7626 36.9157 28.4594 37.6463 28.4596 38.5443C28.4598 39.4426 27.7629 40.1734 26.9062 40.1736L26.9059 41.5313V40.1736C26.0496 40.1736 25.3532 39.4431 25.3531 38.545C25.3531 38.1099 25.5143 37.7009 25.8076 37.393ZM12.6947 28.9195C13.5512 28.9195 14.2479 29.6502 14.248 30.5482C14.2482 31.4465 13.5514 32.1773 12.6947 32.1776C11.8383 32.1775 11.1415 31.447 11.1415 30.5487C11.1413 29.6505 11.8382 28.9197 12.6947 28.9195Z" fill="#231F20"/>
</g>
<defs>
<clipPath id="clip0_986_1466">
<rect width="82" height="86" fill="white" transform="translate(0.123047 0.941772)"/>
</clipPath>
</defs>
</svg>
