<svg width="18" height="18" viewBox="0 0 18 18" fill="none" xmlns="http://www.w3.org/2000/svg">
<path d="M8.76096 0.546265C4.16007 0.546265 0.430664 4.27638 0.430664 8.87656C0.430664 13.4775 4.16007 17.2069 8.76096 17.2069C13.3611 17.2069 17.0913 13.4767 17.0913 8.87656C17.0913 4.27638 13.3611 0.546265 8.76096 0.546265ZM6.7202 11.1135C6.7202 11.5637 6.35537 11.9278 5.90587 11.9278C5.45566 11.9278 5.09154 11.5637 5.09154 11.1135V7.64166C5.09154 7.19145 5.45566 6.82662 5.90587 6.82662C6.35537 6.82662 6.7202 7.19145 6.7202 7.64166V11.1135ZM12.4727 11.0549C12.4727 11.6914 12.1008 11.9194 11.4643 11.9194H8.53586C7.89935 11.9194 7.38352 11.4035 7.38352 10.767V7.88652C7.38352 7.88652 7.32636 7.40738 7.85701 6.95717C8.15692 6.70243 8.60219 6.21623 8.91338 5.6263C9.53154 4.4542 9.90131 4.11266 10.1829 4.2044C11.2258 4.54241 10.7043 6.08851 10.3677 6.73418H11.3204C11.9562 6.73418 12.4727 7.25002 12.4727 7.88652V11.0549Z" fill="#59B792"/>
</svg>
