<svg width="19" height="21" viewBox="0 0 19 21" fill="none" xmlns="http://www.w3.org/2000/svg">
<path fill-rule="evenodd" clip-rule="evenodd" d="M12.1373 13.618C13.7763 12.6112 14.869 10.8024 14.869 8.7385C14.869 5.53118 12.2315 2.94045 9.00706 3.01704C5.95536 3.08972 3.47536 5.58923 3.42462 8.64191C3.38999 10.7429 4.48755 12.5902 6.14706 13.6131C6.72414 13.9692 7.06999 14.6029 7.06999 15.2809V15.8078H11.2212V15.2839C11.2217 14.6078 11.5617 13.9712 12.1373 13.618Z" fill="white"/>
<path fill-rule="evenodd" clip-rule="evenodd" d="M7.07031 15.8074H11.2215V17.4108H7.07031V15.8074Z" fill="#C4CED3"/>
<path fill-rule="evenodd" clip-rule="evenodd" d="M11.222 17.4108H7.07031V19.0152H7.743H10.5488H11.222V17.4108Z" fill="#BAC2C5"/>
<path fill-rule="evenodd" clip-rule="evenodd" d="M10.549 19.0151H7.74316C7.74365 19.7898 8.37146 20.4176 9.14609 20.4176C9.92072 20.4176 10.549 19.7898 10.549 19.0151Z" fill="#BAC2C5"/>
<path d="M11.2224 19.2961H7.07121C6.91609 19.2961 6.79023 19.1703 6.79023 19.0151V15.2805C6.79023 14.7 6.48779 14.1527 6.00048 13.8522C5.12974 13.3156 4.40584 12.5605 3.90633 11.6688C3.39023 10.7478 3.12682 9.69952 3.14438 8.63708C3.17023 7.08781 3.79072 5.62342 4.8917 4.51416C5.99267 3.4044 7.45218 2.77318 9.00096 2.73611C10.6332 2.69757 12.1751 3.30342 13.3415 4.44245C14.5083 5.58196 15.1507 7.10781 15.1507 8.73855C15.1507 10.842 14.0795 12.7551 12.2854 13.8576C11.8029 14.1532 11.5034 14.7 11.5034 15.2839V19.0151C11.5034 19.1703 11.3776 19.2961 11.2224 19.2961ZM7.3517 18.7342H10.941V15.2839C10.941 14.5059 11.3434 13.7756 11.9912 13.3785C13.6175 12.3795 14.5888 10.6449 14.5888 8.73855C14.5888 7.2605 14.0063 5.87757 12.9488 4.8444C11.8917 3.81172 10.4946 3.26294 9.01413 3.29757C6.13511 3.36586 3.75365 5.76537 3.70584 8.64586C3.67413 10.5576 4.66633 12.3693 6.29511 13.3737C6.94682 13.7756 7.3517 14.5063 7.3517 15.2805V18.7342Z" fill="white"/>
<path d="M11.2222 16.0883H7.07004C6.91492 16.0883 6.78906 15.9625 6.78906 15.8073C6.78906 15.6522 6.91492 15.5264 7.07004 15.5264H11.2217C11.3769 15.5264 11.5027 15.6522 11.5027 15.8073C11.5027 15.9625 11.3774 16.0883 11.2222 16.0883Z" fill="black"/>
<path d="M11.2222 17.6917H7.07004C6.91492 17.6917 6.78906 17.5659 6.78906 17.4107C6.78906 17.2556 6.91492 17.1298 7.07004 17.1298H11.2217C11.3769 17.1298 11.5027 17.2556 11.5027 17.4107C11.5027 17.5659 11.3774 17.6917 11.2222 17.6917Z" fill="black"/>
<path d="M9.14582 20.6985C8.21704 20.6985 7.46191 19.9429 7.46191 19.0146C7.46191 18.8595 7.58777 18.7336 7.74289 18.7336C7.89801 18.7336 8.02386 18.8595 8.02386 19.0146C8.02386 19.6332 8.52728 20.1366 9.14582 20.1366C9.76435 20.1366 10.2678 19.6332 10.2678 19.0146C10.2678 18.8595 10.3936 18.7336 10.5487 18.7336C10.7039 18.7336 10.8297 18.8595 10.8297 19.0146C10.8297 19.9429 10.0741 20.6985 9.14582 20.6985Z" fill="black"/>
<path d="M9.14621 10.6673C8.99109 10.6673 8.86523 10.5414 8.86523 10.3863V5.72433C8.86523 5.56921 8.99109 5.44336 9.14621 5.44336C9.30133 5.44336 9.42719 5.56921 9.42719 5.72433V10.3863C9.42719 10.5414 9.30133 10.6673 9.14621 10.6673Z" fill="black"/>
<path d="M9.14621 1.97122C8.99109 1.97122 8.86523 1.84537 8.86523 1.69024V0.280976C8.86523 0.125854 8.99109 0 9.14621 0C9.30133 0 9.42719 0.125854 9.42719 0.280976V1.69024C9.42719 1.84537 9.30133 1.97122 9.14621 1.97122Z" fill="black"/>
<path d="M3.87412 4.15461C3.80241 4.15461 3.73022 4.12729 3.67558 4.07217L2.679 3.07558C2.56924 2.96582 2.56924 2.78778 2.679 2.67802C2.78875 2.56826 2.9668 2.56826 3.07656 2.67802L4.07314 3.67461C4.1829 3.78436 4.1829 3.96241 4.07314 4.07217C4.01802 4.12729 3.94631 4.15461 3.87412 4.15461Z" fill="black"/>
<path d="M1.69024 9.42682H0.280976C0.125854 9.42682 0 9.30097 0 9.14584C0 8.99072 0.125854 8.86487 0.280976 8.86487H1.69024C1.84537 8.86487 1.97122 8.99072 1.97122 9.14584C1.97122 9.30097 1.84537 9.42682 1.69024 9.42682Z" fill="black"/>
<path d="M14.4176 4.15461C14.3459 4.15461 14.2737 4.12729 14.219 4.07217C14.1093 3.96241 14.1093 3.78436 14.219 3.67461L15.2156 2.67802C15.3254 2.56826 15.5034 2.56826 15.6132 2.67802C15.7229 2.78778 15.7229 2.96582 15.6132 3.07558L14.6166 4.07217C14.5615 4.12729 14.4893 4.15461 14.4176 4.15461Z" fill="black"/>
<path d="M18.0106 9.42682H16.6013C16.4462 9.42682 16.3203 9.30097 16.3203 9.14584C16.3203 8.99072 16.4462 8.86487 16.6013 8.86487H18.0106C18.1657 8.86487 18.2915 8.99072 18.2915 9.14584C18.2915 9.30097 18.1657 9.42682 18.0106 9.42682Z" fill="black"/>
</svg>
