<svg width="92" height="91" viewBox="0 0 92 91" fill="none" xmlns="http://www.w3.org/2000/svg">
<path fill-rule="evenodd" clip-rule="evenodd" d="M45.685 35.5152C45.0969 35.5152 44.6191 35.0375 44.6191 34.4493V12.1379C44.6191 11.5498 45.0969 11.072 45.685 11.072C46.2737 11.072 46.7509 11.5498 46.7509 12.1379V34.4493C46.7509 35.038 46.2737 35.5147 45.685 35.5147V35.5152Z" fill="black"/>
<path fill-rule="evenodd" clip-rule="evenodd" d="M56.8412 24.36H34.5297C33.9411 24.36 33.4639 23.8823 33.4639 23.2941C33.4639 22.706 33.9416 22.2283 34.5297 22.2283H56.8412C57.4298 22.2283 57.9071 22.706 57.9071 23.2941C57.9071 23.8828 57.4298 24.36 56.8412 24.36Z" fill="black"/>
<path fill-rule="evenodd" clip-rule="evenodd" d="M63.8453 46.5659C63.2566 46.5659 62.7794 46.0881 62.7794 45.5C62.7794 44.9113 63.2577 44.4341 63.8453 44.4341C65.4891 44.4341 66.8254 43.0974 66.8254 41.454V5.13369C66.8254 3.49035 65.4886 2.1536 63.8453 2.1536H27.5249C25.8816 2.1536 24.5448 3.49035 24.5448 5.13369V41.454C24.5448 43.0974 25.8816 44.4341 27.5249 44.4341C28.1136 44.4341 28.5908 44.9119 28.5908 45.5C28.5908 46.0881 28.1141 46.5659 27.5249 46.5659C24.7064 46.5659 22.4131 44.2725 22.4131 41.454V5.13369C22.4131 2.31517 24.7064 0.0218506 27.5249 0.0218506H63.8442C66.6633 0.0218506 68.9566 2.31517 68.9566 5.13369V41.454C68.9576 44.2725 66.6633 46.5659 63.8447 46.5659H63.8453Z" fill="black"/>
<path fill-rule="evenodd" clip-rule="evenodd" d="M41.6392 90.9782H5.31887C2.50035 90.9782 0.207031 88.6843 0.207031 85.8663V49.546C0.207031 46.7264 2.50035 44.4341 5.31887 44.4341H41.6392C44.4577 44.4341 46.751 46.7275 46.751 49.546C46.751 50.1346 46.2733 50.6119 45.6852 50.6119C45.097 50.6119 44.6193 50.1346 44.6193 49.546C44.6193 47.9037 43.2825 46.5659 41.6392 46.5659H5.31887C3.67553 46.5659 2.33879 47.9037 2.33879 49.546V85.8652C2.33879 87.5086 3.67553 88.8443 5.31887 88.8443H41.6392C43.2825 88.8443 44.6193 87.5075 44.6193 85.8652C44.6193 85.2771 45.097 84.7994 45.6852 84.7994C46.2738 84.7994 46.751 85.2777 46.751 85.8652C46.751 88.6838 44.4577 90.9782 41.6392 90.9782Z" fill="black"/>
<path fill-rule="evenodd" clip-rule="evenodd" d="M86.0513 90.9782H49.731C46.9114 90.9782 44.6191 88.6843 44.6191 85.8663V49.546C44.6191 46.7264 46.9125 44.4341 49.731 44.4341H86.0502C88.8688 44.4341 91.1621 46.7275 91.1621 49.546V85.8652C91.1632 88.6838 88.8693 90.9782 86.0513 90.9782ZM49.731 46.5659C48.0876 46.5659 46.7509 47.9037 46.7509 49.546V85.8652C46.7509 87.5086 48.0882 88.8443 49.731 88.8443H86.0502C87.6936 88.8443 89.0293 87.5075 89.0293 85.8652V49.546C89.0293 47.9026 87.6925 46.5659 86.0502 46.5659H49.7304H49.731Z" fill="black"/>
<path fill-rule="evenodd" clip-rule="evenodd" d="M34.6342 68.7723H12.3227C11.7341 68.7723 11.2568 68.294 11.2568 67.7064C11.2568 67.1188 11.7341 66.6405 12.3227 66.6405H34.6342C35.2223 66.6405 35.7 67.1183 35.7 67.7064C35.7 68.294 35.2233 68.7723 34.6342 68.7723Z" fill="black"/>
<path fill-rule="evenodd" clip-rule="evenodd" d="M60.0028 76.6599C59.7303 76.6599 59.4573 76.5554 59.2483 76.3475C58.8313 75.9311 58.8313 75.2555 59.2483 74.8396L75.0242 59.0636C75.4412 58.6467 76.1162 58.6467 76.5321 59.0636C76.948 59.4806 76.9491 60.1556 76.5321 60.5715L60.7562 76.3475C60.5488 76.5565 60.2747 76.6599 60.0028 76.6599Z" fill="black"/>
<path fill-rule="evenodd" clip-rule="evenodd" d="M75.7793 76.66C75.5068 76.66 75.2338 76.5555 75.0248 76.3475L59.2488 60.5716C58.8324 60.1551 58.8324 59.4796 59.2488 59.0637C59.6658 58.6478 60.3409 58.6472 60.7568 59.0637L76.5327 74.8396C76.9491 75.256 76.9491 75.9316 76.5327 76.3475C76.3242 76.556 76.0517 76.6594 75.7793 76.6594V76.66Z" fill="black"/>
<path fill-rule="evenodd" clip-rule="evenodd" d="M63.8453 44.4341C65.4892 44.4341 66.8254 43.0974 66.8254 41.4541V5.13371C66.8254 3.49037 65.4887 2.15363 63.8453 2.15363H27.525C25.8817 2.15363 24.5449 3.49037 24.5449 5.13371V41.4541C24.5449 43.0974 25.8817 44.4341 27.525 44.4341H41.6389C43.2834 44.4341 44.7491 45.2147 45.6849 46.4246C46.6207 45.2142 48.0865 44.4341 49.7309 44.4341H63.8448H63.8453ZM46.7513 22.2283H56.8417C57.4304 22.2283 57.9076 22.706 57.9076 23.2941C57.9076 23.8828 57.4304 24.36 56.8417 24.36H46.7513V34.4499C46.7513 35.0385 46.2741 35.5152 45.6854 35.5152C45.0973 35.5152 44.6196 35.0375 44.6196 34.4493V24.36H34.5303C33.9416 24.36 33.4644 23.8823 33.4644 23.2941C33.4644 22.706 33.9421 22.2283 34.5303 22.2283H44.6196V12.1384C44.6196 11.5503 45.0973 11.0725 45.6854 11.0725C46.2741 11.0725 46.7513 11.5503 46.7513 12.1384V22.2283Z" fill="#B780FD"/>
<path fill-rule="evenodd" clip-rule="evenodd" d="M86.0503 46.5659H63.845H49.7311C48.0877 46.5659 46.751 47.9037 46.751 49.5459V85.8652C46.751 87.5086 48.0883 88.8442 49.7311 88.8442H86.0503C87.6937 88.8442 89.0294 87.5075 89.0294 85.8652V49.5459C89.0294 47.9026 87.6926 46.5659 86.0503 46.5659ZM67.8904 66.1974L75.0242 59.0637C75.4411 58.6467 76.1162 58.6467 76.5321 59.0637C76.948 59.4806 76.9491 60.1557 76.5321 60.5716L69.3983 67.7053L76.5326 74.8401C76.9491 75.2566 76.9491 75.9321 76.5326 76.348C76.3241 76.5565 76.0517 76.66 75.7792 76.66C75.5067 76.66 75.2337 76.5555 75.0247 76.3475L67.8904 69.2132L60.7561 76.3475C60.5487 76.5565 60.2747 76.66 60.0027 76.66C59.7303 76.66 59.4573 76.5555 59.2482 76.3475C58.8313 75.9311 58.8313 75.2555 59.2482 74.8396L66.3825 67.7053L59.2488 60.5716C58.8323 60.1551 58.8323 59.4796 59.2488 59.0637C59.6657 58.6478 60.3408 58.6472 60.7567 59.0637L67.8904 66.1974Z" fill="#FF7A80"/>
<path fill-rule="evenodd" clip-rule="evenodd" d="M44.6188 85.8663V49.5459C44.6188 47.9037 43.2821 46.5659 41.6388 46.5659H27.5248H5.31895C3.67561 46.5659 2.33887 47.9037 2.33887 49.5459V85.8652C2.33887 87.5086 3.67561 88.8442 5.31895 88.8442H41.6393C43.2826 88.8442 44.6194 87.5075 44.6194 85.8657L44.6188 85.8663ZM12.3231 66.6405H34.6346C35.2227 66.6405 35.7005 67.1183 35.7005 67.7064C35.7005 68.294 35.2238 68.7723 34.6346 68.7723H12.3231C11.7345 68.7723 11.2573 68.294 11.2573 67.7064C11.2573 67.1188 11.7345 66.6405 12.3231 66.6405Z" fill="#FFE483"/>
</svg>
