<svg width="71" height="71" viewBox="0 0 71 71" fill="none" xmlns="http://www.w3.org/2000/svg">
<path d="M54.7914 27.6488V32.4115C54.7914 34.2653 53.2833 35.7735 51.4294 35.7735C49.5757 35.7735 48.0675 34.2654 48.0675 32.4115V8.88457H61.6552V1.04004H25.4585C20.1485 1.04004 15.1444 3.37195 11.7292 7.43767L7.10254 12.9456L13.1091 17.991L17.7358 12.4831C19.6087 10.2535 22.3315 8.9546 25.2344 8.89053V13.5C25.2344 21.5843 22.5233 29.5682 17.6004 35.9808L15.3994 38.848L21.6219 43.6248L23.8229 40.7576C29.7918 32.9824 33.079 23.3021 33.079 13.5V8.88457H40.2231V32.4115C40.2231 38.5907 45.2502 43.6179 51.4294 43.6179C57.6086 43.6179 62.6358 38.5907 62.6358 32.4115V27.6488H54.7914Z" fill="#97E4F9"/>
<path d="M59.5552 27.6488V32.4115C59.5552 38.0678 55.3421 42.7559 49.8896 43.5094C50.3937 43.579 50.9076 43.618 51.4306 43.618C57.6098 43.618 62.6369 38.5908 62.6369 32.4116V27.6489H59.5552V27.6488Z" fill="#0ACEFA"/>
<path d="M44.9863 8.88512V32.3363C44.9863 34.1036 46.3202 35.6259 48.0822 35.7631C48.736 35.8139 49.3539 35.6753 49.8891 35.3981C48.8085 34.8383 48.068 33.7102 48.068 32.4116V8.88457H61.6558V1.04004H58.5741V4.68267C58.5741 5.45632 57.9469 6.08353 57.1732 6.08353H47.7879C46.2406 6.08353 44.9863 7.33782 44.9863 8.88512Z" fill="#0ACEFA"/>
<path d="M29.998 13.5001C29.998 23.3023 26.7108 32.9826 20.7419 40.7578L19.6836 42.1364L21.6226 43.6249L23.8236 40.7578C29.7925 32.9826 33.0797 23.3023 33.0797 13.5001V8.88458H31.3987C30.6251 8.88458 29.9979 9.5118 29.9979 10.2854L29.998 13.5001Z" fill="#0ACEFA"/>
<path d="M36.7871 2.08008H60.6155V7.84453H48.0678C47.4934 7.84453 47.0277 8.31019 47.0277 8.88457V13.7458C47.0277 14.3202 47.4934 14.7859 48.0678 14.7859C48.6422 14.7859 49.1078 14.3202 49.1078 13.7458V9.92461H61.6556C62.2299 9.92461 62.6956 9.45895 62.6956 8.88457V1.04004C62.6956 0.46566 62.2299 0 61.6556 0H36.7871C36.2127 0 35.7471 0.46566 35.7471 1.04004C35.7471 1.61442 36.2127 2.08008 36.7871 2.08008Z" fill="black"/>
<path d="M54.7913 26.6086C54.2169 26.6086 53.7513 27.0743 53.7513 27.6487V32.4114C53.7513 33.6917 52.7097 34.7333 51.4293 34.7333C50.149 34.7333 49.1074 33.6917 49.1074 32.4114V18.6514C49.1074 18.077 48.6418 17.6113 48.0674 17.6113C47.493 17.6113 47.0273 18.077 47.0273 18.6514V32.4114C47.0273 34.8387 49.002 36.8134 51.4293 36.8134C53.8567 36.8134 55.8313 34.8387 55.8313 32.4114V28.6887H61.5958V29.4678C61.5958 30.0422 62.0615 30.5078 62.6358 30.5078C63.2102 30.5078 63.6759 30.0422 63.6759 29.4678V27.6487C63.6759 27.0743 63.2102 26.6086 62.6358 26.6086H54.7913Z" fill="black"/>
<path d="M13.9064 18.66L18.533 13.1521C19.9749 11.4356 21.9968 10.3261 24.1954 10.0165V13.5001C24.1954 21.3567 21.5606 29.1157 16.7765 35.3476L14.5753 38.2148C14.4074 38.4336 14.3332 38.7101 14.3691 38.9836C14.405 39.257 14.5483 39.505 14.767 39.673L20.9894 44.4499C21.1721 44.5901 21.3949 44.665 21.6228 44.665C21.6678 44.665 21.713 44.6621 21.7584 44.6561C22.0318 44.6202 22.2798 44.4769 22.4479 44.2582L24.6489 41.3911C30.7564 33.4352 34.12 23.53 34.12 13.5001V9.92461H39.184V32.4115C39.184 39.1643 44.6778 44.658 51.4305 44.658C57.3957 44.658 62.4694 40.396 63.4946 34.5238C63.5933 33.9578 63.2147 33.4191 62.649 33.3204C62.0833 33.2219 61.5443 33.6003 61.4456 34.166C60.5945 39.0402 56.3827 42.5779 51.4305 42.5779C45.8247 42.5779 41.2641 38.0173 41.2641 32.4115V8.88457C41.2641 8.31019 40.7984 7.84453 40.2241 7.84453H33.08C32.5056 7.84453 32.0399 8.31019 32.0399 8.88457V13.5001C32.0399 23.0744 28.8291 32.5299 22.9988 40.1244L21.4311 42.1667L16.8585 38.6564L18.4264 36.6142C23.4879 30.0211 26.2755 21.8123 26.2755 13.5001V8.89067C26.2755 8.61083 26.1627 8.34278 25.9628 8.14725C25.7628 7.95172 25.4953 7.84481 25.2126 7.85091C22.0119 7.92149 18.9969 9.36604 16.9404 11.8143L12.9827 16.5258L8.56874 12.8183L12.5264 8.10676C15.7435 4.27664 20.4574 2.08008 25.4594 2.08008H31.8909C32.4652 2.08008 32.9309 1.61442 32.9309 1.04004C32.9309 0.46566 32.4652 0 31.8909 0H25.4594C19.8414 0 14.547 2.46711 10.9338 6.76885L6.30714 12.2766C6.12978 12.4878 6.04352 12.7609 6.06738 13.0357C6.09123 13.3104 6.22338 13.5645 6.43458 13.742L12.4412 18.7874C12.881 19.157 13.5369 19.0998 13.9064 18.66Z" fill="black"/>
<path d="M63.8973 47.2075H7.86523C7.29086 47.2075 6.8252 47.6732 6.8252 48.2476C6.8252 48.8219 7.29086 49.2876 7.86523 49.2876H63.8973C64.4716 49.2876 64.9373 48.8219 64.9373 48.2476C64.9373 47.6732 64.4716 47.2075 63.8973 47.2075Z" fill="black"/>
<path d="M25.2353 52.8107H22.4338C20.7788 52.8107 19.4326 54.157 19.4326 55.8119C19.4326 56.3863 19.8983 56.852 20.4727 56.852C21.047 56.852 21.5127 56.3863 21.5127 55.8119C21.5127 55.304 21.9258 54.8907 22.4338 54.8907H25.2353C25.7433 54.8907 26.1564 55.304 26.1564 55.8119V58.6135C26.1564 59.1215 25.7433 59.5347 25.2353 59.5347H23.2742C22.6999 59.5347 22.2342 60.0004 22.2342 60.5748C22.2342 61.1491 22.6999 61.6148 23.2742 61.6148H25.2353C25.7433 61.6148 26.1564 62.0279 26.1564 62.5359V65.3375C26.1564 65.8454 25.7433 66.2585 25.2353 66.2585H22.4338C21.9258 66.2585 21.5127 65.8454 21.5127 65.3375C21.5127 64.7631 21.047 64.2974 20.4727 64.2974C19.8983 64.2974 19.4326 64.7631 19.4326 65.3375C19.4326 66.9924 20.7788 68.3386 22.4338 68.3386H25.2353C26.8903 68.3386 28.2365 66.9924 28.2365 65.3375V62.5359C28.2365 61.7866 27.9598 61.1012 27.5042 60.5748C27.9598 60.0484 28.2365 59.3629 28.2365 58.6137V55.8121C28.2365 54.157 26.8901 52.8107 25.2353 52.8107Z" fill="black"/>
<path d="M51.2902 52.8107C50.7158 52.8107 50.2502 53.2763 50.2502 53.8507V59.5346H46.5275C46.0195 59.5346 45.6064 59.1213 45.6064 58.6134V53.8507C45.6064 53.2763 45.1408 52.8107 44.5664 52.8107C43.992 52.8107 43.5264 53.2763 43.5264 53.8507V58.6134C43.5264 60.2683 44.8726 61.6147 46.5275 61.6147H50.2502V67.2984C50.2502 67.8728 50.7158 68.3385 51.2902 68.3385C51.8646 68.3385 52.3302 67.8728 52.3302 67.2984V60.5746V53.8507C52.3302 53.2763 51.8647 52.8107 51.2902 52.8107Z" fill="black"/>
<path d="M39.2428 52.8107C38.6684 52.8107 38.2028 53.2763 38.2028 53.8507V54.4111C38.2028 55.6913 37.1612 56.733 35.8809 56.733C35.3065 56.733 34.8408 57.1987 34.8408 57.773C34.8408 58.3474 35.3065 58.8131 35.8809 58.8131C36.7326 58.8131 37.5281 58.5692 38.2028 58.1486V67.2984C38.2028 67.8728 38.6684 68.3385 39.2428 68.3385C39.8172 68.3385 40.2829 67.8728 40.2829 67.2984V53.8507C40.2829 53.2763 39.8172 52.8107 39.2428 52.8107Z" fill="black"/>
<path d="M31.5038 64.4701C31.0977 64.8762 31.0977 65.5348 31.5038 65.9408C31.9425 66.3794 32.1839 66.9624 32.1839 67.5825C32.1839 68.2028 31.9423 68.7858 31.5038 69.2244C31.0977 69.6306 31.0977 70.2891 31.5038 70.6952C31.7069 70.8982 31.9731 70.9998 32.2392 70.9998C32.5053 70.9998 32.7716 70.8983 32.9746 70.6952C34.6909 68.9788 34.6909 66.1863 32.9746 64.4699C32.5686 64.0639 31.91 64.0639 31.5038 64.4701Z" fill="black"/>
</svg>
