<svg width="26" height="26" viewBox="0 0 26 26" fill="none" xmlns="http://www.w3.org/2000/svg">
<g clip-path="url(#clip0_0_64664)">
<path d="M13.0814 15.6C13.6274 15.6 13.9004 15.21 13.9817 14.5811C14.0467 13.7134 14.3034 13.2567 15.358 12.5336C16.4517 11.7617 17.0627 10.7624 17.0627 9.30638C17.0627 7.15325 15.5677 5.6875 13.3869 5.6875C11.7294 5.6875 10.4749 6.487 9.97442 7.78375C9.82229 8.13777 9.7459 8.5197 9.75017 8.905C9.75017 9.54363 10.08 9.945 10.6358 9.945C11.0778 9.945 11.3752 9.70613 11.5523 9.11625C11.809 8.15425 12.4054 7.62938 13.2975 7.62938C14.2888 7.62938 14.9713 8.35412 14.9713 9.39087C14.9713 10.3057 14.6333 10.829 13.6355 11.544C12.6297 12.2476 12.1308 13.0293 12.1308 14.209V14.3894C12.1308 15.0849 12.4688 15.6 13.0814 15.6Z" fill="white"/>
<path d="M16.6943 4.08354L15.1976 2.54954L16.3595 1.41529L17.3703 2.45041L18.8165 2.43254C19.4426 2.42513 20.0637 2.54297 20.6436 2.77913C21.2234 3.01529 21.7501 3.36501 22.1929 3.80771C22.6356 4.25041 22.9853 4.77716 23.2214 5.35699C23.4576 5.93681 23.5754 6.55801 23.568 7.18404L23.5518 8.63029L24.5853 9.64104C25.0329 10.0784 25.3886 10.6009 25.6314 11.1777C25.8742 11.7545 25.9993 12.3741 25.9993 12.9999C25.9993 13.6258 25.8742 14.2453 25.6314 14.8221C25.3886 15.3989 25.0329 15.9214 24.5853 16.3588L23.5501 17.3695L23.568 18.8158C23.5754 19.4418 23.4576 20.063 23.2214 20.6428C22.9853 21.2227 22.6356 21.7494 22.1929 22.1921C21.7501 22.6348 21.2234 22.9845 20.6436 23.2207C20.0637 23.4569 19.4426 23.5747 18.8165 23.5673L17.3703 23.551L16.3595 24.5845C15.9221 25.0322 15.3997 25.3878 14.8228 25.6307C14.246 25.8735 13.6265 25.9986 13.0006 25.9986C12.3748 25.9986 11.7553 25.8735 11.1784 25.6307C10.6016 25.3878 10.0792 25.0322 9.64177 24.5845L8.63102 23.5494L7.18477 23.5673C6.55874 23.5747 5.93755 23.4569 5.35772 23.2207C4.7779 22.9845 4.25114 22.6348 3.80844 22.1921C3.36574 21.7494 3.01603 21.2227 2.77986 20.6428C2.5437 20.063 2.42586 19.4418 2.43327 18.8158L2.44952 17.3695L1.41602 16.3588C0.968399 15.9214 0.612719 15.3989 0.369883 14.8221C0.127047 14.2453 0.00195312 13.6258 0.00195312 12.9999C0.00195312 12.3741 0.127047 11.7545 0.369883 11.1777C0.612719 10.6009 0.968399 10.0784 1.41602 9.64104L2.45115 8.63029L2.43327 7.18404C2.42586 6.55801 2.5437 5.93681 2.77986 5.35699C3.01603 4.77716 3.36574 4.25041 3.80844 3.80771C4.25114 3.36501 4.7779 3.01529 5.35772 2.77913C5.93755 2.54297 6.55874 2.42513 7.18477 2.43254L8.63102 2.44879L9.64177 1.41529C10.0792 0.967666 10.6016 0.611986 11.1784 0.36915C11.7553 0.126314 12.3748 0.0012207 13.0006 0.0012207C13.6265 0.0012207 14.246 0.126314 14.8228 0.36915C15.3997 0.611986 15.9221 0.967666 16.3595 1.41529L15.1976 2.54954C14.9116 2.25669 14.5699 2.02399 14.1926 1.86511C13.8153 1.70624 13.41 1.62439 13.0006 1.62439C12.5913 1.62439 12.186 1.70624 11.8087 1.86511C11.4314 2.02399 11.0897 2.25669 10.8036 2.54954L9.30865 4.08354L7.16365 4.05754C6.75443 4.05296 6.34844 4.13022 5.9695 4.28476C5.59057 4.4393 5.24634 4.66801 4.95704 4.95746C4.66774 5.24691 4.43921 5.59126 4.28487 5.97028C4.13052 6.34929 4.05348 6.75533 4.05827 7.16454L4.08427 9.30629L2.55027 10.8029C2.25742 11.089 2.02472 11.4307 1.86585 11.808C1.70697 12.1853 1.62513 12.5905 1.62513 12.9999C1.62513 13.4093 1.70697 13.8145 1.86585 14.1918C2.02472 14.5691 2.25742 14.9109 2.55027 15.1969L4.08427 16.6919L4.05827 18.8369C4.0537 19.2461 4.13095 19.6521 4.28549 20.0311C4.44003 20.41 4.66875 20.7542 4.9582 21.0435C5.24764 21.3328 5.59199 21.5613 5.97101 21.7157C6.35002 21.87 6.75606 21.9471 7.16527 21.9423L9.30702 21.9163L10.8036 23.4503C11.0897 23.7431 11.4314 23.9758 11.8087 24.1347C12.186 24.2936 12.5913 24.3754 13.0006 24.3754C13.41 24.3754 13.8153 24.2936 14.1926 24.1347C14.5699 23.9758 14.9116 23.7431 15.1976 23.4503L16.6926 21.9163L18.8376 21.9423C19.2469 21.9469 19.6529 21.8696 20.0318 21.7151C20.4107 21.5605 20.755 21.3318 21.0443 21.0424C21.3336 20.7529 21.5621 20.4086 21.7164 20.0296C21.8708 19.6505 21.9478 19.2445 21.943 18.8353L21.917 16.6935L23.451 15.1969C23.7439 14.9109 23.9766 14.5691 24.1354 14.1918C24.2943 13.8145 24.3762 13.4093 24.3762 12.9999C24.3762 12.5905 24.2943 12.1853 24.1354 11.808C23.9766 11.4307 23.7439 11.089 23.451 10.8029L21.917 9.30791L21.943 7.16291C21.9476 6.7537 21.8703 6.3477 21.7158 5.96877C21.5613 5.58983 21.3325 5.24561 21.0431 4.95631C20.7536 4.66701 20.4093 4.43848 20.0303 4.28413C19.6513 4.12979 19.2452 4.05275 18.836 4.05754L16.6943 4.08354Z" fill="white"/>
<path d="M11.377 17.875C11.377 17.444 11.5482 17.0307 11.8529 16.726C12.1577 16.4212 12.571 16.25 13.002 16.25C13.4329 16.25 13.8463 16.4212 14.151 16.726C14.4557 17.0307 14.627 17.444 14.627 17.875C14.627 18.306 14.4557 18.7193 14.151 19.024C13.8463 19.3288 13.4329 19.5 13.002 19.5C12.571 19.5 12.1577 19.3288 11.8529 19.024C11.5482 18.7193 11.377 18.306 11.377 17.875Z" fill="white"/>
</g>
<defs>
<clipPath id="clip0_0_64664">
<rect width="26" height="26" fill="white"/>
</clipPath>
</defs>
</svg>
