<svg width="21" height="21" viewBox="0 0 21 21" fill="none" xmlns="http://www.w3.org/2000/svg">
<path d="M9.99155 2.12908C10.2093 1.45894 11.1574 1.45894 11.3751 2.12908L12.8063 6.5339C12.9037 6.8336 13.183 7.03651 13.4981 7.03651H18.1296C18.8342 7.03651 19.1272 7.93818 18.5571 8.35235L14.8102 11.0747C14.5552 11.2599 14.4486 11.5882 14.5459 11.8879L15.9772 16.2927C16.1949 16.9629 15.4279 17.5201 14.8578 17.106L11.1109 14.3836C10.8559 14.1984 10.5107 14.1984 10.2558 14.3836L6.50882 17.106C5.93876 17.5201 5.17176 16.9629 5.3895 16.2927L6.82071 11.8879C6.91809 11.5882 6.81141 11.2599 6.55647 11.0747L2.80951 8.35235C2.23945 7.93818 2.53242 7.03651 3.23706 7.03651H7.86856C8.18368 7.03651 8.46296 6.8336 8.56034 6.5339L9.99155 2.12908Z" fill="#59B792"/>
</svg>
