<svg width="78" height="93" viewBox="0 0 78 93" fill="none" xmlns="http://www.w3.org/2000/svg">
<path d="M36.9902 65.3311L32.877 69.4613L29.005 73.3474L25.5996 69.9278L29.3911 66.1207L33.5831 61.9117L36.9902 65.3311Z" fill="#678D98"/>
<path d="M33.5831 61.9117L29.3911 66.1209C29.7773 66.5714 30.1848 67.0112 30.6103 67.4384C30.8132 67.6421 31.0191 67.8403 31.2268 68.0352L27.4707 71.8068L29.005 73.3474L32.877 69.4613L32.8805 69.4577L36.9902 65.3311L33.5831 61.9117Z" fill="#537983"/>
<path d="M12.3016 90.5595L8.45894 86.7011C7.52671 85.765 7.52671 84.2472 8.45894 83.3111L22.0054 69.7088C22.9377 68.7728 24.4493 68.7728 25.3815 69.7088L29.2241 73.5673C30.1564 74.5034 30.1564 76.0212 29.2241 76.9573L15.6777 90.5595C14.7454 91.4956 13.2338 91.4956 12.3016 90.5595Z" fill="#6C7FD8"/>
<path d="M29.2237 73.568L25.3804 69.7088C24.4472 68.7719 22.9367 68.7719 22.0036 69.7088L21.1223 70.5955L19.3075 72.4176C20.3098 71.4114 21.9347 71.4114 22.9371 72.4178L24.855 74.3436C25.787 75.2793 25.787 76.7966 24.855 77.7325L14.0046 88.6276C13.0022 89.6341 11.3771 89.6341 10.375 88.6276L12.1898 90.4499L12.3006 90.5594C13.232 91.4963 14.7443 91.4963 15.6774 90.5594L29.2239 76.9571C30.155 76.0219 30.1551 74.5032 29.2237 73.568Z" fill="#4F66D0"/>
<path d="M50.9827 4.905V50.7987C50.9827 52.3801 49.7082 53.6599 48.1351 53.6599H4.34945C2.77456 53.6599 1.5 52.3801 1.5 50.7987V4.905C1.5 3.32364 2.77456 2.04382 4.34945 2.04382H48.1351C49.7082 2.044 50.9827 3.32364 50.9827 4.905Z" fill="#E2F1FE"/>
<path d="M50.9833 23.1222V50.7988C50.9833 52.3802 49.7087 53.66 48.1356 53.66H21.4002C19.3694 45.4139 21.5628 36.335 27.9803 29.8893C34.2245 23.6194 42.9516 21.3632 50.9833 23.1222Z" fill="#C4E3FF"/>
<path d="M48.134 2.04358H42.9492C44.5227 2.04358 45.7983 3.32447 45.7983 4.9044V50.7998C45.7983 52.3797 44.5227 53.6606 42.9492 53.6606H48.134C49.7074 53.6606 50.9831 52.3797 50.9831 50.7998V4.9044C50.9831 3.32429 49.7074 2.04358 48.134 2.04358Z" fill="#C4E3FF"/>
<path d="M51.2207 72.6958C65.0128 72.6958 76.1934 61.4692 76.1934 47.6203C76.1934 33.7715 65.0128 22.5448 51.2207 22.5448C37.4287 22.5448 26.248 33.7715 26.248 47.6203C26.248 61.4692 37.4287 72.6958 51.2207 72.6958Z" fill="#0ED290"/>
<path d="M68.8795 29.8893C63.1801 24.1664 55.4115 21.7898 47.9922 22.7559C53.6637 23.2353 59.2035 25.6521 63.5431 30.0097C73.2956 39.8024 73.2956 55.6792 63.5431 65.4718C59.4901 69.5416 54.3902 71.9183 49.1137 72.6052C56.1877 73.2033 63.4668 70.7866 68.8795 65.3514C78.6319 55.5589 78.6319 39.6819 68.8795 29.8893Z" fill="#00C285"/>
<path d="M65.1052 61.5631C57.5295 69.17 45.3064 69.2615 37.6192 61.8411C37.523 61.7496 37.4283 61.6563 37.3355 61.5631C29.6668 53.8629 29.6668 41.3774 37.3355 33.6772C44.7322 26.25 56.5585 25.9872 64.2693 32.8871C64.5548 33.1398 64.8333 33.4042 65.1052 33.6772C72.7739 41.3774 72.7739 53.8629 65.1052 61.5631Z" fill="#E2F1FE"/>
<path d="M64.2693 32.887V61.8413H37.6192C37.523 61.7498 37.4283 61.6564 37.3355 61.5633C29.6668 53.863 29.6668 41.3776 37.3355 33.6774C44.7321 26.2501 56.5585 25.9872 64.2693 32.887Z" fill="#FFC344"/>
<path d="M48.7734 28.0561C52.6014 28.5355 56.3159 30.145 59.3802 32.8872V59.5872C59.3802 60.8322 58.375 61.8415 57.1351 61.8415H64.2706V32.887C59.9068 28.9821 54.2247 27.3722 48.7734 28.0561Z" fill="#F6AB31"/>
<path d="M69.8284 28.9372C64.9784 24.0673 58.6905 21.501 52.3243 21.2354V4.9051C52.3243 2.58528 50.4454 0.697876 48.1359 0.697876H4.35031C2.03982 0.697876 0.160156 2.58528 0.160156 4.9051V50.7988C0.160156 53.1188 2.03983 55.0062 4.35013 55.0062H21.0162C21.7568 55.0062 22.3569 54.4037 22.3569 53.66C22.3569 52.9164 21.7568 52.3138 21.0162 52.3138H4.35031C3.51853 52.3138 2.84175 51.6342 2.84175 50.7988V4.9051C2.84175 4.0699 3.51853 3.39033 4.35031 3.39033H48.1359C48.9668 3.39033 49.6429 4.0699 49.6429 4.9051V21.26C43.4403 21.631 37.3445 24.1888 32.6156 28.9372C27.6457 33.9278 24.9087 40.563 24.9087 47.6203C24.9087 53.4068 26.7499 58.9083 30.1517 63.4532L25.4947 68.1294C24.0778 67.3447 22.2578 67.5518 21.0573 68.7568L7.51079 82.3591C6.05729 83.8187 6.05729 86.1933 7.51097 87.6529L11.3538 91.5114C12.0578 92.2183 12.9939 92.6078 13.9896 92.6078C14.9853 92.6078 15.9217 92.2183 16.6258 91.5114L30.1723 77.9091C31.3725 76.7038 31.5786 74.8756 30.7963 73.4526L35.4522 68.7789C39.0651 71.5083 43.2872 73.2358 47.8447 73.8247C48.5771 73.9198 49.2511 73.3986 49.3456 72.6614C49.4402 71.924 48.9214 71.2493 48.1871 71.1543C42.9699 70.4801 38.2412 68.1442 34.5119 64.3993C33.974 63.8592 33.466 63.2972 32.987 62.7162C32.9822 62.7101 32.977 62.7041 32.972 62.6982C29.4867 58.4605 27.5901 53.1869 27.5901 47.6203C27.5901 41.2819 30.0482 35.323 34.5119 30.8411C43.7259 21.5888 58.7186 21.5892 67.9323 30.8411C77.1463 40.0933 77.1463 55.1473 67.9323 64.3995C64.1867 68.1607 59.4359 70.4992 54.1938 71.1624C53.4593 71.2554 52.9387 71.9289 53.0311 72.6664C53.086 73.1794 53.7045 73.9195 54.529 73.8339C60.3675 73.0952 65.6579 70.4913 69.8285 66.3034C80.0876 56.0016 80.0876 39.2393 69.8284 28.9372ZM28.2762 76.0052L14.7297 89.6075C14.5322 89.806 14.2692 89.9155 13.9896 89.9155C13.71 89.9155 13.4474 89.8062 13.2497 89.6077C13.2497 89.6077 13.2497 89.6077 13.2495 89.6075L9.40691 85.749C9.2092 85.5507 9.10034 85.2868 9.10034 85.0059C9.10034 84.7254 9.20902 84.4615 9.40691 84.263L22.9532 70.6607C23.1574 70.4557 23.4253 70.3534 23.6935 70.3534C23.9614 70.3534 24.2294 70.4557 24.4335 70.6607L28.2762 74.519C28.6841 74.929 28.6843 75.5956 28.2762 76.0052ZM29.0053 71.4437L27.4957 69.9278L31.8769 65.5289C32.1179 65.7908 32.3632 66.0498 32.6156 66.3032C32.8682 66.5569 33.1251 66.8044 33.3857 67.0464L29.0053 71.4437Z" fill="black"/>
<path d="M72.1985 47.6201C72.1985 41.9935 70.0164 36.7037 66.0545 32.7257C65.7549 32.4245 65.453 32.1391 65.1625 31.882C56.8796 24.4706 44.2409 24.8409 36.3883 32.7253C28.2091 40.9384 28.2091 54.3021 36.3883 62.5153C36.49 62.6173 36.5935 62.7194 36.6911 62.8119C36.6926 62.8131 36.694 62.8145 36.6952 62.8158C36.6965 62.8171 36.6977 62.8181 36.699 62.8194C36.6995 62.8199 36.7001 62.8203 36.7006 62.8208C40.6274 66.6068 45.7754 68.6846 51.2181 68.6846C51.2844 68.6846 51.3509 68.6843 51.4173 68.6837C56.9458 68.6322 62.1438 66.4416 66.0542 62.5153C70.0164 58.5368 72.1985 53.247 72.1985 47.6201ZM38.2844 34.6292C41.8439 31.0549 46.5314 29.251 51.2274 29.251C55.5661 29.251 59.9125 30.7907 63.3839 33.8971C63.6375 34.1216 63.898 34.3677 64.1581 34.6292C67.6139 38.0991 69.5171 42.7127 69.5171 47.6201C69.5171 51.7891 68.143 55.7454 65.611 58.9692V39.6189C65.611 38.8752 65.0109 38.2727 64.2703 38.2727C63.5297 38.2727 62.9296 38.8752 62.9296 39.6189V60.4951H38.1716C31.1519 53.3226 31.1887 41.754 38.2844 34.6292ZM51.3926 65.9913C47.8476 66.0198 44.4399 65.0432 41.5014 63.1875H60.9461C58.1079 64.982 54.8234 65.9593 51.3926 65.9913Z" fill="black"/>
<path d="M41.5216 53.4773C41.941 53.8655 42.7216 54.0877 43.4177 53.4773L48.8964 47.9761L54.2242 53.3256C54.6435 53.7139 55.424 53.9361 56.1203 53.3256C56.6439 52.7997 56.6439 51.9474 56.1203 51.4217L50.7925 46.0721L56.1203 40.7226C56.6439 40.1967 56.6439 39.3444 56.1203 38.8187C55.5967 38.2933 54.7479 38.2929 54.2242 38.8187L48.8964 44.1682L43.4177 38.667C42.8941 38.1416 42.0454 38.1413 41.5216 38.667C40.998 39.1929 40.998 40.0452 41.5216 40.5709L47.0003 46.0721L41.5216 51.5734C40.998 52.0991 40.998 52.9514 41.5216 53.4773Z" fill="black"/>
<path d="M14.2507 45.6536C14.2385 45.6538 14.2262 45.6539 14.2142 45.6539C13.3259 45.6539 12.5696 44.9981 12.4468 44.116C12.4884 43.4578 12.0533 42.5743 11.0888 42.5169C10.3481 42.5169 9.74805 43.1195 9.74805 43.8631C9.74805 44.0704 9.76235 44.2797 9.79095 44.4867C10.0988 46.7022 11.9915 48.3466 14.2135 48.3466C14.2437 48.3466 14.2741 48.3462 14.3045 48.3455C16.6327 48.2983 18.5511 46.4335 18.672 44.0999C18.7361 42.8576 18.3026 41.6776 17.451 40.7768C16.6116 39.8891 15.4312 39.3798 14.2131 39.3798C14.0467 39.3798 13.8906 39.3839 13.7426 39.3918L13.9838 37.9311H16.6849C17.4255 37.9311 18.0256 37.3285 18.0256 36.5849C18.0256 35.8412 17.4255 35.2386 16.6849 35.2386H12.8469C12.191 35.2386 11.6313 35.715 11.5242 36.3648L10.7638 40.9729C10.6814 41.4726 10.8882 41.9753 11.2947 42.2756C11.7012 42.5759 12.2441 42.6203 12.6947 42.3925C13.6997 41.8168 15.968 41.9025 15.9941 43.96C15.946 44.8907 15.18 45.6347 14.2507 45.6536Z" fill="black"/>
<path d="M18.0651 23.0569H10.8798C10.1392 23.0569 9.53906 23.6595 9.53906 24.4031C9.53906 25.1468 10.1392 25.7493 10.8798 25.7493H18.0651C18.8057 25.7493 19.4058 25.1468 19.4058 24.4031C19.4058 23.6595 18.8057 23.0569 18.0651 23.0569Z" fill="black"/>
<path d="M19.4058 28.9419C19.4058 28.1982 18.8057 27.5956 18.0651 27.5956H10.8798C10.1392 27.5956 9.53906 28.1982 9.53906 28.9419C9.53906 29.6855 10.1392 30.2881 10.8798 30.2881H18.0651C18.8057 30.2881 19.4058 29.6853 19.4058 28.9419Z" fill="black"/>
<path d="M19.1494 16.2969L15.9012 11.9992L18.6251 8.37173C19.071 7.77796 18.953 6.93378 18.3618 6.4863C17.7701 6.03863 16.9296 6.15692 16.4841 6.7507L14.2164 9.77055L11.9314 6.74747C11.4836 6.15495 10.6426 6.03989 10.0528 6.48899C9.46293 6.93863 9.3478 7.78298 9.79542 8.37532L12.5387 12.0049L9.43826 16.1337C8.99243 16.7275 9.11041 17.5717 9.70157 18.0191C10.0766 18.3144 10.9608 18.4697 11.5793 17.7547L14.2235 14.2334L17.0134 17.9246C17.4389 18.3128 17.944 18.7431 18.892 18.183C19.4817 17.7336 19.597 16.8892 19.1494 16.2969Z" fill="black"/>
<path d="M26.8305 6.63635C26.0899 6.63635 25.4898 7.23892 25.4898 7.98258V10.7592H22.6259C21.8853 10.7592 21.2852 11.3618 21.2852 12.1054C21.2852 12.8491 21.8853 13.4517 22.6259 13.4517H25.4898V16.3274C25.4898 17.071 26.0899 17.6736 26.8305 17.6736C27.5711 17.6736 28.1712 17.071 28.1712 16.3274V13.4517H30.9363C31.6769 13.4517 32.277 12.8491 32.277 12.1054C32.277 11.3618 31.6769 10.7592 30.9363 10.7592H28.1712V7.98258C28.1712 7.23892 27.5709 6.63635 26.8305 6.63635Z" fill="black"/>
<path d="M42.5897 10.4435C42.6111 10.3052 42.6506 10.1288 42.6705 9.7768C42.6705 7.71295 40.9983 6.03375 38.9428 6.03375C37.1657 6.03375 35.6273 7.30333 35.2851 9.05271C35.1425 9.78218 35.6158 10.4899 36.3423 10.6332C37.0692 10.7759 37.7737 10.3011 37.9163 9.57163C38.0121 9.08179 38.4438 8.7262 38.9428 8.7262C40.2316 8.94573 40.1955 10.0857 39.1934 11.4003C37.7191 13.5155 36.8396 14.6719 36.3672 15.2929C35.7614 16.0893 35.4278 16.5279 35.6507 17.2563C35.7817 17.6845 36.1167 18.0261 36.5481 18.1708C36.7272 18.2306 36.8702 18.2787 38.7034 18.2787C39.422 18.2787 40.4004 18.2713 41.7418 18.2543C42.4824 18.2449 43.075 17.6348 43.0655 16.8913C43.0564 16.1536 42.4581 15.562 41.7253 15.562C41.7196 15.562 41.7139 15.562 41.7082 15.5622C40.9744 15.5713 40.203 15.5781 39.5066 15.5814C39.9889 14.9257 40.6079 14.0666 41.3902 12.9444C42.0071 12.0595 42.4107 11.218 42.5897 10.4435Z" fill="black"/>
</svg>
